<svg xmlns="http://www.w3.org/2000/svg" xmlns:xlink="http://www.w3.org/1999/xlink" width="447.057" height="426.133" viewBox="0 0 447.057 426.133">
  <defs>
    <linearGradient id="linear-gradient" y1="0.5" x2="1" y2="0.5" gradientUnits="objectBoundingBox">
      <stop offset="0" stop-color="#cdd2f3"/>
      <stop offset="0.434" stop-color="#e5e9ff"/>
      <stop offset="0.483" stop-color="#eff1ff"/>
      <stop offset="0.535" stop-color="#fff"/>
      <stop offset="0.59" stop-color="#ebedf8"/>
      <stop offset="0.702" stop-color="#b8bee8"/>
      <stop offset="0.722" stop-color="#afb6e5"/>
      <stop offset="0.909" stop-color="#afb6e5"/>
      <stop offset="0.95" stop-color="#b9c0ea"/>
      <stop offset="1" stop-color="#cdd2f3"/>
    </linearGradient>
    <linearGradient id="linear-gradient-2" x1="0.686" y1="-0.026" x2="0.323" y2="1.001" gradientUnits="objectBoundingBox">
      <stop offset="0" stop-color="#afb6e5"/>
      <stop offset="0" stop-color="#fff"/>
      <stop offset="0.145" stop-color="#b5bce8"/>
      <stop offset="0.349" stop-color="#c7cdf0"/>
      <stop offset="0.581" stop-color="#e5e9ff"/>
      <stop offset="0.855" stop-color="#f4f6ff"/>
    </linearGradient>
    <linearGradient id="linear-gradient-3" x1="0.825" y1="-0.925" x2="-10.156" y2="4.494" xlink:href="#linear-gradient"/>
    <linearGradient id="linear-gradient-4" x1="0.999" y1="0.365" x2="-0.084" y2="0.658" gradientUnits="objectBoundingBox">
      <stop offset="0" stop-color="#4916a1"/>
      <stop offset="0.515" stop-color="#5f27bd"/>
      <stop offset="1" stop-color="#b4299a"/>
    </linearGradient>
    <linearGradient id="linear-gradient-5" x1="0.849" y1="0.24" x2="0.071" y2="0.82" gradientUnits="objectBoundingBox">
      <stop offset="0" stop-color="#4421a4"/>
      <stop offset="0.035" stop-color="#4622a5"/>
      <stop offset="0.334" stop-color="#502cb4"/>
      <stop offset="0.515" stop-color="#5934c0"/>
      <stop offset="1" stop-color="#a73ca3"/>
    </linearGradient>
    <linearGradient id="linear-gradient-6" x1="0.663" y1="0.223" x2="0.289" y2="0.859" gradientUnits="objectBoundingBox">
      <stop offset="0" stop-color="#3f2ba6"/>
      <stop offset="0.035" stop-color="#412ca8"/>
      <stop offset="0.344" stop-color="#4b38b7"/>
      <stop offset="0.515" stop-color="#5342c2"/>
      <stop offset="1" stop-color="#9b4eac"/>
    </linearGradient>
    <linearGradient id="linear-gradient-7" x1="0.551" y1="0.042" x2="0.431" y2="1.123" gradientUnits="objectBoundingBox">
      <stop offset="0" stop-color="#3a36a9"/>
      <stop offset="0.035" stop-color="#3c37aa"/>
      <stop offset="0.334" stop-color="#4544b9"/>
      <stop offset="0.515" stop-color="#4d4fc5"/>
      <stop offset="1" stop-color="#8e61b6"/>
    </linearGradient>
    <linearGradient id="linear-gradient-8" x1="0.332" y1="-0.012" x2="0.74" y2="1.233" gradientUnits="objectBoundingBox">
      <stop offset="0" stop-color="#3541ab"/>
      <stop offset="0.035" stop-color="#3741ac"/>
      <stop offset="0.326" stop-color="#3f4fbb"/>
      <stop offset="0.515" stop-color="#475cc8"/>
      <stop offset="1" stop-color="#8274bf"/>
    </linearGradient>
    <linearGradient id="linear-gradient-9" x1="0.134" y1="0.09" x2="1.05" y2="1.117" gradientUnits="objectBoundingBox">
      <stop offset="0" stop-color="#304bae"/>
      <stop offset="0.035" stop-color="#324caf"/>
      <stop offset="0.317" stop-color="#395bbd"/>
      <stop offset="0.515" stop-color="#4169ca"/>
      <stop offset="1" stop-color="#7586c8"/>
    </linearGradient>
    <linearGradient id="linear-gradient-10" x1="0.066" y1="0.288" x2="1.186" y2="0.835" gradientUnits="objectBoundingBox">
      <stop offset="0" stop-color="#2c56b0"/>
      <stop offset="0.035" stop-color="#2c56b1"/>
      <stop offset="0.288" stop-color="#3265be"/>
      <stop offset="0.515" stop-color="#3b77cd"/>
      <stop offset="1" stop-color="#6999d1"/>
    </linearGradient>
    <linearGradient id="linear-gradient-11" x1="0.062" y1="0.462" x2="1.227" y2="0.563" gradientUnits="objectBoundingBox">
      <stop offset="0" stop-color="#2760b3"/>
      <stop offset="0.035" stop-color="#2761b4"/>
      <stop offset="0.276" stop-color="#2d70bf"/>
      <stop offset="0.515" stop-color="#3584cf"/>
      <stop offset="1" stop-color="#5cabda"/>
    </linearGradient>
    <linearGradient id="linear-gradient-12" x1="0.083" y1="0.619" x2="1.227" y2="0.293" gradientUnits="objectBoundingBox">
      <stop offset="0" stop-color="#226bb5"/>
      <stop offset="0.035" stop-color="#226bb6"/>
      <stop offset="0.26" stop-color="#277ac1"/>
      <stop offset="0.515" stop-color="#2f91d2"/>
      <stop offset="1" stop-color="#50bee3"/>
    </linearGradient>
    <linearGradient id="linear-gradient-13" x1="0.214" y1="0.719" x2="1.025" y2="0.098" gradientUnits="objectBoundingBox">
      <stop offset="0" stop-color="#1d76b8"/>
      <stop offset="0.035" stop-color="#1d76b8"/>
      <stop offset="0.251" stop-color="#2185c3"/>
      <stop offset="0.515" stop-color="#299ed5"/>
      <stop offset="1" stop-color="#43d1ed"/>
    </linearGradient>
    <linearGradient id="linear-gradient-14" x1="0.365" y1="0.738" x2="0.76" y2="0.042" gradientUnits="objectBoundingBox">
      <stop offset="0" stop-color="#1880ba"/>
      <stop offset="0.035" stop-color="#1880bb"/>
      <stop offset="0.234" stop-color="#1b8fc4"/>
      <stop offset="0.515" stop-color="#23acd7"/>
      <stop offset="1" stop-color="#37e3f6"/>
    </linearGradient>
    <linearGradient id="linear-gradient-15" x1="0.464" y1="0.883" x2="0.574" y2="-0.275" gradientUnits="objectBoundingBox">
      <stop offset="0.035" stop-color="#138bbd"/>
      <stop offset="0.226" stop-color="#169ac6"/>
      <stop offset="0.595" stop-color="#1ec2df"/>
      <stop offset="1" stop-color="#2af6ff"/>
    </linearGradient>
    <linearGradient id="linear-gradient-16" x1="-5.292" y1="-0.011" x2="-5.966" y2="-0.894" gradientUnits="objectBoundingBox">
      <stop offset="0" stop-color="#afb6e5"/>
      <stop offset="0.145" stop-color="#b5bce8"/>
      <stop offset="0.349" stop-color="#c7cdf0"/>
      <stop offset="0.581" stop-color="#e5e9ff"/>
      <stop offset="0.855" stop-color="#f4f6ff"/>
      <stop offset="1" stop-color="#fff"/>
    </linearGradient>
    <linearGradient id="linear-gradient-17" x1="0.709" y1="0.183" x2="0.396" y2="0.788" gradientUnits="objectBoundingBox">
      <stop offset="0" stop-color="#fff"/>
      <stop offset="1" stop-color="#b4299a"/>
    </linearGradient>
    <linearGradient id="linear-gradient-18" x1="0.925" y1="0.446" x2="1.356" y2="0.391" gradientUnits="objectBoundingBox">
      <stop offset="0" stop-color="#25054d"/>
      <stop offset="1" stop-color="#45108a"/>
    </linearGradient>
    <linearGradient id="linear-gradient-19" x1="0.47" y1="0.617" x2="0.666" y2="-0.156" gradientUnits="objectBoundingBox">
      <stop offset="0.005" stop-color="#5b15a3"/>
      <stop offset="0.284" stop-color="#4e50bb"/>
      <stop offset="0.926" stop-color="#2de4f7"/>
      <stop offset="1" stop-color="#2af6ff"/>
    </linearGradient>
    <linearGradient id="linear-gradient-20" x1="0.999" y1="1.015" x2="0" y2="-0.016" gradientUnits="objectBoundingBox">
      <stop offset="0.03" stop-color="#7c1dc9"/>
      <stop offset="0.279" stop-color="#6e40d1"/>
      <stop offset="0.829" stop-color="#4c9be8"/>
      <stop offset="1" stop-color="#41b9f0"/>
    </linearGradient>
    <linearGradient id="linear-gradient-21" x1="0.499" y1="0.492" x2="0.593" y2="-0.438" gradientUnits="objectBoundingBox">
      <stop offset="0" stop-color="#6aceae"/>
      <stop offset="0.114" stop-color="#70d2b2"/>
      <stop offset="0.673" stop-color="#8be3c5"/>
      <stop offset="1" stop-color="#96eacc"/>
    </linearGradient>
    <linearGradient id="linear-gradient-22" x1="0.069" y1="1.918" x2="0.723" y2="-0.232" xlink:href="#linear-gradient-21"/>
    <linearGradient id="linear-gradient-61" x1="0.393" y1="0.662" x2="0.615" y2="0.326" gradientUnits="objectBoundingBox">
      <stop offset="0" stop-color="#43e8e1"/>
      <stop offset="0.094" stop-color="#36bcb6"/>
      <stop offset="0.218" stop-color="#288b86"/>
      <stop offset="0.344" stop-color="#1b605d"/>
      <stop offset="0.471" stop-color="#113d3b"/>
      <stop offset="0.599" stop-color="#092221"/>
      <stop offset="0.729" stop-color="#040f0e"/>
      <stop offset="0.861" stop-color="#010303"/>
      <stop offset="1"/>
    </linearGradient>
    <linearGradient id="linear-gradient-62" x1="1.016" y1="0.036" x2="0.128" y2="0.773" gradientUnits="objectBoundingBox">
      <stop offset="0" stop-color="#fff"/>
      <stop offset="0.268" stop-color="#f4eef3"/>
      <stop offset="0.795" stop-color="#d8c3d7"/>
      <stop offset="1" stop-color="#ccb1cb"/>
    </linearGradient>
    <radialGradient id="radial-gradient" cx="0.5" cy="0.5" r="0.709" gradientTransform="translate(0.213) scale(0.575 1)" gradientUnits="objectBoundingBox">
      <stop offset="0" stop-color="#fff"/>
      <stop offset="1"/>
    </radialGradient>
    <radialGradient id="radial-gradient-2" cx="0.295" cy="0.328" r="0.298" gradientTransform="translate(-0.716) scale(2.433 1)" xlink:href="#radial-gradient"/>
    <radialGradient id="radial-gradient-3" cx="0.364" cy="0.503" r="0.457" gradientTransform="translate(-0.112) scale(1.224 1)" xlink:href="#radial-gradient"/>
    <linearGradient id="linear-gradient-63" x1="0.217" y1="-0.062" x2="0.877" y2="0.859" gradientUnits="objectBoundingBox">
      <stop offset="0.035" stop-color="#f7aa90"/>
      <stop offset="0.183" stop-color="#f9b996"/>
      <stop offset="0.469" stop-color="#fee1a6"/>
      <stop offset="0.485" stop-color="#ffe4a7"/>
      <stop offset="0.739" stop-color="#f7aa90"/>
    </linearGradient>
    <linearGradient id="linear-gradient-64" x1="0.269" y1="0.169" x2="1.103" y2="1.807" gradientUnits="objectBoundingBox">
      <stop offset="0.035" stop-color="#f7aa90"/>
      <stop offset="0.282" stop-color="#f9b996"/>
      <stop offset="0.758" stop-color="#fee1a6"/>
      <stop offset="0.784" stop-color="#ffe4a7"/>
      <stop offset="0.874" stop-color="#f7aa90"/>
    </linearGradient>
    <radialGradient id="radial-gradient-4" cx="0.869" cy="0.355" r="0.588" gradientTransform="translate(-0.187) scale(1.375 1)" gradientUnits="objectBoundingBox">
      <stop offset="0.364" stop-color="#fff"/>
      <stop offset="0.427" stop-color="#e1e1e1"/>
      <stop offset="0.64" stop-color="#828282"/>
      <stop offset="0.813" stop-color="#3b3b3b"/>
      <stop offset="0.937" stop-color="#101010"/>
      <stop offset="1"/>
    </radialGradient>
    <linearGradient id="linear-gradient-65" x1="0.482" y1="-0.042" x2="0.639" y2="2.183" gradientUnits="objectBoundingBox">
      <stop offset="0" stop-color="#fff3a7"/>
      <stop offset="0.114" stop-color="#fce7a0"/>
      <stop offset="0.413" stop-color="#f7cf92"/>
      <stop offset="0.689" stop-color="#f5c189"/>
      <stop offset="0.919" stop-color="#f4bc87"/>
    </linearGradient>
    <radialGradient id="radial-gradient-5" cx="0.836" cy="0.996" r="0.417" gradientTransform="translate(-0.293) scale(1.587 1)" gradientUnits="objectBoundingBox">
      <stop offset="0" stop-color="#ff63ce"/>
      <stop offset="1"/>
    </radialGradient>
    <radialGradient id="radial-gradient-6" cx="0.353" cy="0.659" r="0.381" gradientTransform="translate(-0.521 39.008) scale(2.475 1.662)" gradientUnits="objectBoundingBox">
      <stop offset="0.136" stop-color="#25166d"/>
      <stop offset="0.217" stop-color="#2b1d71"/>
      <stop offset="0.335" stop-color="#3e317e"/>
      <stop offset="0.478" stop-color="#5d5192"/>
      <stop offset="0.639" stop-color="#877faf"/>
      <stop offset="0.815" stop-color="#beb9d3"/>
      <stop offset="1" stop-color="#fff"/>
    </radialGradient>
    <linearGradient id="linear-gradient-66" x1="2.394" y1="0.748" x2="-1.507" y2="0.237" gradientUnits="objectBoundingBox">
      <stop offset="0.035" stop-color="#9d9eb3"/>
      <stop offset="0.581" stop-color="#d4d1d8"/>
      <stop offset="1" stop-color="#eeebf2"/>
    </linearGradient>
    <linearGradient id="linear-gradient-67" x1="0.497" y1="0.412" x2="0.462" y2="-0.534" xlink:href="#linear-gradient-61"/>
    <linearGradient id="linear-gradient-68" x1="-0.525" y1="0.871" x2="1.412" y2="0.156" xlink:href="#linear-gradient-66"/>
    <linearGradient id="linear-gradient-69" x1="0.224" y1="0.682" x2="2.807" y2="-1.25" xlink:href="#linear-gradient-66"/>
    <linearGradient id="linear-gradient-70" x1="1.867" y1="1.021" x2="-0.08" y2="0.267" gradientUnits="objectBoundingBox">
      <stop offset="0.035" stop-color="#9f19ab"/>
      <stop offset="0.244" stop-color="#ae24b0"/>
      <stop offset="0.645" stop-color="#d643bf"/>
      <stop offset="1" stop-color="#ff63ce"/>
    </linearGradient>
    <linearGradient id="linear-gradient-71" x1="0.065" y1="1.101" x2="1.329" y2="-0.647" xlink:href="#linear-gradient-70"/>
    <radialGradient id="radial-gradient-7" cx="1.554" cy="0.842" r="0.369" gradientTransform="translate(-1.171) scale(3.342 1)" xlink:href="#radial-gradient"/>
    <radialGradient id="radial-gradient-8" cx="0.361" cy="0.258" r="0.387" gradientTransform="translate(-0.624) scale(2.248 1)" xlink:href="#radial-gradient"/>
    <linearGradient id="linear-gradient-72" x1="-56.813" y1="-104.622" x2="-48.339" y2="-109.234" gradientUnits="objectBoundingBox">
      <stop offset="0.096" stop-color="#45108a"/>
      <stop offset="1" stop-color="#7c1dc9"/>
    </linearGradient>
    <linearGradient id="linear-gradient-73" x1="-57.597" y1="-103.502" x2="-49.125" y2="-108.115" xlink:href="#linear-gradient-72"/>
    <linearGradient id="linear-gradient-74" x1="-58.403" y1="-102.382" x2="-49.929" y2="-106.995" xlink:href="#linear-gradient-72"/>
    <linearGradient id="linear-gradient-75" x1="-59.198" y1="-101.262" x2="-50.724" y2="-105.875" xlink:href="#linear-gradient-72"/>
    <linearGradient id="linear-gradient-76" x1="-59.993" y1="-100.143" x2="-51.519" y2="-104.756" xlink:href="#linear-gradient-72"/>
  </defs>
  <g id="Grupo_930082" data-name="Grupo 930082" transform="translate(-915 -118.678)">
    <g id="Grupo_922737" data-name="Grupo 922737" transform="translate(13275.333 12297.469)">
      <path id="Trazado_603087" data-name="Trazado 603087" d="M291.761,344.213A160.651,160.651,0,0,0,452.411,183.563c0-.571-.016-1.139-.022-1.709H131.132c-.005.57-.022,1.137-.022,1.709A160.651,160.651,0,0,0,291.761,344.213" transform="translate(-12365.688 -12096.871)" fill="#e6933e"/>
      <path id="Trazado_603329" data-name="Trazado 603329" d="M68.192,194.8A67.474,67.474,0,0,0,.718,127.325c-.239,0-.479.006-.718.009V262.263c.239,0,.479.009.718.009A67.474,67.474,0,0,0,68.192,194.8" transform="translate(-12360.333 -12134.263)" fill="#efcc5d"/>
    </g>
    <g id="Grupo_930081" data-name="Grupo 930081" transform="translate(153.91 23.032)">
      <g id="Grupo_930038" data-name="Grupo 930038" transform="translate(775.819 289.147)" opacity="0.2">
        <path id="Trazado_611127" data-name="Trazado 611127" d="M990.252,464.419a35.823,35.823,0,0,1-17.886-4.312l-189.4-109.349c-6.521-3.765-10.261-9.724-10.26-16.347,0-7.259,4.5-14.024,12.357-18.556L892.55,253.8a44.034,44.034,0,0,1,21.719-5.521,35.823,35.823,0,0,1,17.886,4.312l189.4,109.349c6.521,3.765,10.26,9.723,10.26,16.345,0,7.259-4.5,14.023-12.356,18.558L1011.972,458.9A44.033,44.033,0,0,1,990.252,464.419Z" transform="translate(-772.708 -248.277)" opacity="0"/>
        <path id="Trazado_611128" data-name="Trazado 611128" d="M892.76,254.413a43.069,43.069,0,0,1,21.656-5.366,41.362,41.362,0,0,1,8.873,1.084,35.387,35.387,0,0,1,8.848,3.489l188.678,108.933c6.491,3.747,9.875,9.686,9.482,16.137a18.908,18.908,0,0,1-1.136,5.222c-1.647,4.61-6.316,9.52-11.62,12.583l-105.962,61.177a41.934,41.934,0,0,1-4.607,2.274,45.014,45.014,0,0,1-16.755,3.311,35.027,35.027,0,0,1-17.641-4.176l-189.4-109.349c-6.5-3.756-9.872-9.714-9.446-16.172a19.464,19.464,0,0,1,.9-4.5c1.52-4.885,6.354-10.108,11.92-13.32Z" transform="translate(-772.443 -248.072)" opacity="0.091"/>
        <path id="Trazado_611129" data-name="Trazado 611129" d="M892.985,255.029a42.146,42.146,0,0,1,21.593-5.212,36.779,36.779,0,0,1,17.557,4.835l187.957,108.516c6.46,3.731,9.5,9.641,8.7,15.93a20.827,20.827,0,0,1-1.4,4.979c-1.607,4.1-6.98,9.317-11.756,12.074l-104.434,60.3a47.606,47.606,0,0,1-4.528,2.267A44.343,44.343,0,0,1,990.2,462.1a34.247,34.247,0,0,1-17.4-4.04L783.4,348.708c-6.49-3.748-9.491-9.695-8.632-16a22.446,22.446,0,0,1,1.145-4.3c1.512-4.35,7.119-9.906,12.128-12.8Z" transform="translate(-772.194 -247.868)" opacity="0.182"/>
        <path id="Trazado_611130" data-name="Trazado 611130" d="M893.224,255.647a41.2,41.2,0,0,1,21.531-5.057,40.33,40.33,0,0,1,8.727,1.389,47.363,47.363,0,0,1,8.664,3.706l187.237,108.1c6.43,3.712,9.128,9.591,7.925,15.722a23.748,23.748,0,0,1-1.667,4.735c-1.544,3.6-7.647,9.114-11.892,11.565l-102.909,59.415c-1.076.621-3.265,1.756-4.449,2.259a43.729,43.729,0,0,1-16.2,3.457c-6.495.108-12.512-1.229-17.15-3.907l-189.4-109.349c-6.474-3.737-9.12-9.669-7.817-15.822a27.111,27.111,0,0,1,1.395-4.089c1.476-3.817,7.883-9.7,12.334-12.272Z" transform="translate(-771.96 -247.664)" opacity="0.273"/>
        <path id="Trazado_611131" data-name="Trazado 611131" d="M893.478,256.266a40.319,40.319,0,0,1,21.468-4.9,39.756,39.756,0,0,1,8.656,1.543,56.278,56.278,0,0,1,8.571,3.813l186.515,107.686c6.4,3.694,8.772,9.539,7.147,15.514a28.73,28.73,0,0,1-1.932,4.492c-1.455,3.1-8.314,8.912-12.027,11.056L1010.493,454c-.941.544-3.334,1.805-4.367,2.252a43.1,43.1,0,0,1-15.924,3.53c-6.388.143-12.349-1.14-16.907-3.772L783.9,346.662c-6.457-3.728-8.762-9.641-7-15.648a36.387,36.387,0,0,1,1.644-3.879c1.41-3.292,8.647-9.5,12.542-11.748Z" transform="translate(-771.74 -247.462)" opacity="0.364"/>
        <path id="Trazado_611132" data-name="Trazado 611132" d="M893.745,256.886a37.529,37.529,0,0,1,29.989-3.054,68.62,68.62,0,0,1,8.479,3.924l185.8,107.27c6.368,3.677,8.426,9.485,6.367,15.3a37.388,37.388,0,0,1-2.2,4.25c-1.336,2.614-8.98,8.708-12.163,10.547L1010.16,452.78c-.807.465-3.405,1.856-4.289,2.244a42.467,42.467,0,0,1-15.647,3.6c-6.282.179-12.186-1.052-16.662-3.637l-189.4-109.349c-6.442-3.718-8.419-9.612-6.187-15.472.474-1.246,1.279-2.368,1.894-3.671,1.31-2.776,9.411-9.3,12.75-11.225Z" transform="translate(-771.534 -247.261)" opacity="0.455"/>
        <path id="Trazado_611133" data-name="Trazado 611133" d="M894.026,257.507a36.3,36.3,0,0,1,29.855-2.746,86.542,86.542,0,0,1,8.386,4.032l185.075,106.854c6.338,3.659,8.095,9.435,5.588,15.1a16.411,16.411,0,0,1-2.463,4.006c-.755,2.328-9.646,8.507-12.3,10.038l-98.331,56.771c-.672.389-3.475,1.909-4.209,2.238a41.793,41.793,0,0,1-15.37,3.674c-6.174.216-12.022-.965-16.416-3.5l-189.4-109.349c-6.425-3.711-8.092-9.588-5.373-15.3a16.851,16.851,0,0,1,2.145-3.464c.683-2.465,10.174-9.094,12.957-10.7Z" transform="translate(-771.34 -247.061)" opacity="0.545"/>
        <path id="Trazado_611134" data-name="Trazado 611134" d="M894.317,258.128a35.125,35.125,0,0,1,29.719-2.438c1.165.375,7.335,3.587,8.294,4.141l184.355,106.437c6.307,3.642,7.778,9.392,4.81,14.889a16.711,16.711,0,0,1-2.728,3.764c-.6,1.861-10.313,8.3-12.434,9.529l-96.8,55.89c-.539.311-3.545,1.964-4.129,2.23a41.163,41.163,0,0,1-15.094,3.746c-6.068.251-11.86-.877-16.172-3.366L784.735,343.6c-6.41-3.7-7.779-9.573-4.558-15.123a17.128,17.128,0,0,1,2.393-3.256c.548-1.971,10.938-8.891,13.164-10.175Z" transform="translate(-771.157 -246.862)" opacity="0.636"/>
        <path id="Trazado_611135" data-name="Trazado 611135" d="M894.618,258.751a36.917,36.917,0,0,1,21.216-4.285,37.5,37.5,0,0,1,8.367,2.154c.871.293,7.484,3.834,8.2,4.248l183.634,106.022c6.277,3.623,7.473,9.357,4.031,14.681a17.165,17.165,0,0,1-2.995,3.519c-.453,1.4-10.978,8.1-12.57,9.02l-95.278,55.009c-.4.233-3.612,2.02-4.049,2.222a40.527,40.527,0,0,1-14.816,3.819c-5.961.288-11.7-.789-15.928-3.232L785.036,342.58c-6.395-3.692-7.48-9.567-3.744-14.948a17.609,17.609,0,0,1,2.645-3.046c.41-1.479,11.7-8.688,13.371-9.651Z" transform="translate(-770.984 -246.665)" opacity="0.727"/>
        <path id="Trazado_611136" data-name="Trazado 611136" d="M894.925,259.374a36.131,36.131,0,0,1,21.154-4.129,36.861,36.861,0,0,1,8.3,2.3c.577.205,7.629,4.082,8.109,4.359L1115.4,367.514c6.245,3.606,7.179,9.338,3.252,14.473a17.819,17.819,0,0,1-3.259,3.277c-.3.931-11.644,7.9-12.706,8.511L1008.934,447.9c-.27.155-3.679,2.078-3.971,2.215a39.9,39.9,0,0,1-14.54,3.891c-5.853.323-11.534-.7-15.682-3.1l-189.4-109.349c-6.377-3.683-7.191-9.578-2.927-14.773a18.377,18.377,0,0,1,2.893-2.84c.274-.986,12.466-8.485,13.579-9.127Z" transform="translate(-770.818 -246.467)" opacity="0.818"/>
        <path id="Trazado_611137" data-name="Trazado 611137" d="M895.241,260a35.339,35.339,0,0,1,21.091-3.976,36.29,36.29,0,0,1,8.224,2.458c.286.107,7.778,4.328,8.017,4.466l182.194,105.191c6.214,3.588,6.894,9.333,2.475,14.264a18.659,18.659,0,0,1-3.526,3.034c-.151.465-12.311,7.7-12.841,8l-92.227,53.248c-.134.077-3.745,2.137-3.89,2.207a39.266,39.266,0,0,1-14.264,3.963c-5.747.359-11.372-.614-15.438-2.962l-189.4-109.349c-6.362-3.673-6.909-9.6-2.113-14.6a19.252,19.252,0,0,1,3.144-2.631c.137-.493,13.229-8.282,13.786-8.6Z" transform="translate(-770.66 -246.271)" opacity="0.909"/>
        <path id="Trazado_611138" data-name="Trazado 611138" d="M975.378,448.878l-189.4-109.349c-7.479-4.318-6.542-11.861,2.1-16.847l107.487-62.057c8.636-4.986,21.7-5.527,29.179-1.209l189.4,109.349c7.479,4.318,6.542,11.86-2.1,16.846l-107.487,62.059C995.921,452.655,982.856,453.2,975.378,448.878Z" transform="translate(-770.506 -246.075)"/>
      </g>
      <path id="Trazado_611139" data-name="Trazado 611139" d="M975.378,448.741l-189.4-109.349c-3.333-1.924-4.994-4.489-5.048-7.182,0-.086,0-9.3,0-9.383.06-3.273,2.478,2.411,7.144-.283l107.487-62.057c8.636-4.986,21.7-5.527,29.179-1.209l189.4,109.349c2.5,1.441,4.308-4.677,4.954-2.732.217.648.079,9.232.094,9.9.071,3.353-2.35,6.908-7.144,9.674l-107.487,62.059C995.921,452.518,982.856,453.059,975.378,448.741Z" transform="translate(5.313 43.035)" fill="url(#linear-gradient)"/>
      <path id="Trazado_611140" data-name="Trazado 611140" d="M975.378,441.477l-189.4-109.349c-7.479-4.318-6.542-11.86,2.1-16.846l107.487-62.059c8.636-4.986,21.7-5.527,29.179-1.209l189.4,109.349c7.479,4.318,6.542,11.861-2.1,16.847l-107.487,62.057C995.921,445.254,982.856,445.795,975.378,441.477Z" transform="translate(5.313 41.09)" fill="#afb6e5"/>
      <path id="Trazado_611141" data-name="Trazado 611141" d="M987.252,439.812A22.1,22.1,0,0,1,976.47,437.4l-189.4-109.349c-1.18-.681-3.158-2.112-3.158-4.042,0-2.017,1.962-4.355,5.254-6.254L896.654,255.7a30.083,30.083,0,0,1,14.616-3.618,22.1,22.1,0,0,1,10.781,2.409l189.4,109.349c1.18.681,3.158,2.112,3.158,4.04,0,2.017-1.965,4.356-5.254,6.255l-107.487,62.059A30.084,30.084,0,0,1,987.252,439.812Z" transform="translate(6.112 41.889)" fill="url(#linear-gradient-2)"/>
      <path id="Trazado_611142" data-name="Trazado 611142" d="M1112.043,360.839,1004.556,422.9c-8.636,4.986-21.7,5.527-29.179,1.209l-189.4-109.349c-3.1-1.791-4.735-4.141-4.991-6.629-.389,3.055,1.244,6.03,4.991,8.192l189.4,109.349c7.479,4.318,20.543,3.777,29.179-1.209L1112.043,362.4c5.055-2.918,7.449-6.709,7.087-10.218C1118.743,355.228,1116.352,358.352,1112.043,360.839Z" transform="translate(5.313 56.896)" fill="#fff"/>
      <path id="Trazado_611143" data-name="Trazado 611143" d="M1082.909,392.845,896.628,285.3a15.6,15.6,0,0,1-7.19-17.821l40.58-140.383A15.6,15.6,0,0,1,952.8,117.9l186.281,107.55a15.594,15.594,0,0,1,7.19,17.821L1105.7,383.652A15.6,15.6,0,0,1,1082.909,392.845Z" transform="translate(34.205 5.397)" fill="url(#linear-gradient-3)"/>
      <path id="Trazado_611144" data-name="Trazado 611144" d="M1080.855,392.845,894.572,285.3a15.6,15.6,0,0,1-7.19-17.821l40.58-140.383a15.6,15.6,0,0,1,22.786-9.193l186.282,107.55a15.6,15.6,0,0,1,7.19,17.821l-40.58,140.381A15.6,15.6,0,0,1,1080.855,392.845Z" transform="translate(33.654 5.397)" fill="#afb6e5"/>
      <g id="Grupo_930039" data-name="Grupo 930039" transform="translate(925.637 126.411)">
        <path id="Trazado_611145" data-name="Trazado 611145" d="M1087.528,388.629a10.215,10.215,0,0,1-5.169-1.4L896.078,279.68a10.364,10.364,0,0,1-4.787-11.864l40.58-140.384a10.45,10.45,0,0,1,10-7.519,10.209,10.209,0,0,1,5.169,1.4l186.281,107.549a10.366,10.366,0,0,1,4.788,11.865l-40.58,140.383A10.451,10.451,0,0,1,1087.528,388.629Z" transform="translate(-890.883 -119.913)" opacity="0.2" fill="url(#linear-gradient-4)"/>
        <path id="Trazado_611146" data-name="Trazado 611146" d="M1087.224,388.157a10.179,10.179,0,0,1-5.15-1.395L896.464,279.6a10.328,10.328,0,0,1-4.771-11.822l40.458-139.962a10.415,10.415,0,0,1,9.966-7.493,10.183,10.183,0,0,1,5.151,1.395l185.61,107.162a10.33,10.33,0,0,1,4.771,11.822l-40.458,139.962A10.415,10.415,0,0,1,1087.224,388.157Z" transform="translate(-890.775 -119.803)" opacity="0.273" fill="url(#linear-gradient-5)"/>
        <path id="Trazado_611147" data-name="Trazado 611147" d="M1086.919,387.685a10.133,10.133,0,0,1-5.131-1.391L896.847,279.519A10.288,10.288,0,0,1,892.1,267.74L932.431,128.2a10.377,10.377,0,0,1,9.93-7.466,10.151,10.151,0,0,1,5.132,1.389L1132.433,228.9a10.294,10.294,0,0,1,4.754,11.78l-40.338,139.538A10.376,10.376,0,0,1,1086.919,387.685Z" transform="translate(-890.667 -119.693)" opacity="0.345" fill="url(#linear-gradient-6)"/>
        <path id="Trazado_611148" data-name="Trazado 611148" d="M1086.615,387.213a10.115,10.115,0,0,1-5.113-1.384L897.232,279.438A10.249,10.249,0,0,1,892.5,267.7l40.215-139.117a10.337,10.337,0,0,1,9.894-7.439,10.116,10.116,0,0,1,5.113,1.384l184.27,106.389a10.256,10.256,0,0,1,4.736,11.737L1096.51,379.774A10.34,10.34,0,0,1,1086.615,387.213Z" transform="translate(-890.559 -119.583)" opacity="0.418" fill="url(#linear-gradient-7)"/>
        <path id="Trazado_611149" data-name="Trazado 611149" d="M1086.31,386.74a10.071,10.071,0,0,1-5.094-1.379l-183.6-106a10.214,10.214,0,0,1-4.717-11.694l40.093-138.7a10.3,10.3,0,0,1,9.858-7.413,10.08,10.08,0,0,1,5.094,1.379l183.6,106a10.216,10.216,0,0,1,4.719,11.7l-40.094,138.7A10.3,10.3,0,0,1,1086.31,386.74Z" transform="translate(-890.451 -119.473)" opacity="0.491" fill="url(#linear-gradient-8)"/>
        <path id="Trazado_611150" data-name="Trazado 611150" d="M1086.005,386.268a10.035,10.035,0,0,1-5.075-1.374L898,279.278a10.177,10.177,0,0,1-4.7-11.651l39.971-138.274a10.264,10.264,0,0,1,9.823-7.385,10.029,10.029,0,0,1,5.076,1.376L1131.1,228.956a10.182,10.182,0,0,1,4.7,11.652l-39.973,138.274A10.264,10.264,0,0,1,1086.005,386.268Z" transform="translate(-890.343 -119.363)" opacity="0.564" fill="url(#linear-gradient-9)"/>
        <path id="Trazado_611151" data-name="Trazado 611151" d="M1085.7,385.795a10,10,0,0,1-5.057-1.369L898.386,279.2a10.14,10.14,0,0,1-4.683-11.609l39.85-137.852a10.227,10.227,0,0,1,9.787-7.358,10,10,0,0,1,5.057,1.37l182.258,105.226a10.143,10.143,0,0,1,4.684,11.609l-39.851,137.852A10.227,10.227,0,0,1,1085.7,385.795Z" transform="translate(-890.235 -119.253)" opacity="0.636" fill="url(#linear-gradient-10)"/>
        <path id="Trazado_611152" data-name="Trazado 611152" d="M1085.4,385.322a9.962,9.962,0,0,1-5.038-1.364L898.77,279.117a10.1,10.1,0,0,1-4.665-11.566l39.729-137.43a10.188,10.188,0,0,1,9.75-7.33,9.963,9.963,0,0,1,5.038,1.364l181.588,104.84a10.106,10.106,0,0,1,4.668,11.567l-39.731,137.43A10.188,10.188,0,0,1,1085.4,385.322Z" transform="translate(-890.127 -119.142)" opacity="0.709" fill="url(#linear-gradient-11)"/>
        <path id="Trazado_611153" data-name="Trazado 611153" d="M1085.092,384.851a9.915,9.915,0,0,1-5.019-1.36L899.155,279.038a10.066,10.066,0,0,1-4.649-11.523l39.608-137.009a10.15,10.15,0,0,1,9.715-7.3,9.927,9.927,0,0,1,5.019,1.359l180.918,104.453a10.07,10.07,0,0,1,4.65,11.524l-39.609,137.008A10.153,10.153,0,0,1,1085.092,384.851Z" transform="translate(-890.019 -119.032)" opacity="0.782" fill="url(#linear-gradient-12)"/>
        <path id="Trazado_611154" data-name="Trazado 611154" d="M1084.788,384.378a9.886,9.886,0,0,1-5-1.355L899.539,278.957a10.029,10.029,0,0,1-4.631-11.48L934.393,130.89a10.113,10.113,0,0,1,9.679-7.277,9.891,9.891,0,0,1,5,1.354l180.248,104.066a10.031,10.031,0,0,1,4.634,11.481L1094.466,377.1A10.113,10.113,0,0,1,1084.788,384.378Z" transform="translate(-889.911 -118.922)" opacity="0.855" fill="url(#linear-gradient-13)"/>
        <path id="Trazado_611155" data-name="Trazado 611155" d="M1084.483,383.905a9.85,9.85,0,0,1-4.982-1.349L899.924,278.877a9.993,9.993,0,0,1-4.615-11.438l39.365-136.166a10.075,10.075,0,0,1,9.641-7.249,9.854,9.854,0,0,1,4.984,1.349l179.577,103.679a9.992,9.992,0,0,1,4.615,11.438l-39.365,136.165A10.076,10.076,0,0,1,1084.483,383.905Z" transform="translate(-889.803 -118.812)" opacity="0.927" fill="url(#linear-gradient-14)"/>
        <path id="Trazado_611156" data-name="Trazado 611156" d="M1084.179,383.433a9.814,9.814,0,0,1-4.963-1.344L900.308,278.8a9.953,9.953,0,0,1-4.6-11.395l39.244-135.744a10.038,10.038,0,0,1,9.606-7.222,9.811,9.811,0,0,1,4.965,1.345l178.906,103.292a9.955,9.955,0,0,1,4.6,11.395L1093.786,376.21A10.04,10.04,0,0,1,1084.179,383.433Z" transform="translate(-889.695 -118.702)" fill="url(#linear-gradient-15)"/>
      </g>
      <path id="Trazado_611157" data-name="Trazado 611157" d="M1125.774,225.446,939.492,117.9a15.45,15.45,0,0,0-10.682-1.808,15.434,15.434,0,0,1,9.466,1.982l186.281,107.55a15.594,15.594,0,0,1,7.19,17.821l-40.579,140.383a15.554,15.554,0,0,1-12.1,11,15.563,15.563,0,0,0,13.32-11.175l40.58-140.383A15.6,15.6,0,0,0,1125.774,225.446Z" transform="translate(44.91 5.4)" fill="#fff"/>
      <path id="Trazado_611158" data-name="Trazado 611158" d="M993.78,396.692l-153.8-88.8c-3.079-1.777-2.694-4.883.862-6.936l57.743-33.339c3.556-2.052,8.935-2.276,12.016-.5l153.8,88.8c3.079,1.777,2.694,4.883-.862,6.937L1005.8,396.194C1002.24,398.248,996.86,398.471,993.78,396.692Z" transform="translate(20.568 45.595)" fill="url(#linear-gradient-16)"/>
      <path id="Trazado_611159" data-name="Trazado 611159" d="M900.064,273.045l9.856,5.69a5,5,0,0,0,4.525.009c1.246-.72,1.24-1.889-.014-2.613l-9.856-5.69a5,5,0,0,0-4.525-.009C898.806,271.152,898.812,272.321,900.064,273.045Zm16.875,9.743,4.668,2.7a5,5,0,0,0,4.525.008c1.246-.719,1.24-1.889-.014-2.612l-4.668-2.7a5,5,0,0,0-4.525-.009C915.68,280.894,915.686,282.064,916.94,282.788Zm11.688,6.747,4.668,2.7a5,5,0,0,0,4.525.009c1.246-.72,1.24-1.889-.014-2.613l-4.668-2.7a5,5,0,0,0-4.525-.008C927.367,287.642,927.374,288.811,928.627,289.535Zm11.688,6.748,4.668,2.7a5,5,0,0,0,4.525.008c1.245-.719,1.239-1.889-.014-2.612l-4.669-2.7a5,5,0,0,0-4.525-.009C939.055,294.389,939.061,295.56,940.315,296.283ZM952,303.031l4.669,2.7a5,5,0,0,0,4.525.009c1.245-.72,1.239-1.889-.014-2.613l-4.669-2.7a5,5,0,0,0-4.525-.008C950.742,301.138,950.749,302.307,952,303.031Zm11.688,6.748,4.669,2.7a5,5,0,0,0,4.525.008c1.245-.719,1.239-1.889-.014-2.612l-4.669-2.7a5,5,0,0,0-4.525-.009C962.43,307.885,962.436,309.055,963.689,309.779Zm11.688,6.747,4.669,2.7a5,5,0,0,0,4.525.009c1.245-.72,1.239-1.889-.015-2.613l-4.668-2.7a5,5,0,0,0-4.525-.008C974.117,314.633,974.124,315.8,975.376,316.526Zm11.688,6.748,4.668,2.7a5,5,0,0,0,4.525.008c1.246-.719,1.24-1.889-.014-2.612l-4.668-2.7a5,5,0,0,0-4.525-.009C985.8,321.38,985.81,322.55,987.064,323.274Zm11.688,6.747,4.668,2.7a5,5,0,0,0,4.525.009c1.246-.72,1.24-1.889-.014-2.613l-4.668-2.7a5,5,0,0,0-4.525-.008C997.491,328.129,997.5,329.3,998.752,330.021Zm11.687,6.748,4.668,2.7a5,5,0,0,0,4.525.008c1.246-.719,1.24-1.889-.014-2.612l-4.668-2.7a5,5,0,0,0-4.525-.009C1009.179,334.876,1009.185,336.046,1010.439,336.77Zm11.688,6.747,4.668,2.7a5,5,0,0,0,4.525.009c1.245-.72,1.239-1.889-.014-2.613l-4.669-2.7a5,5,0,0,0-4.525-.008C1020.867,341.624,1020.873,342.793,1022.127,343.517Zm11.686,6.748,4.669,2.7a5,5,0,0,0,4.525.008c1.245-.719,1.239-1.889-.014-2.612l-4.669-2.7a5,5,0,0,0-4.525-.009C1032.554,348.371,1032.56,349.541,1033.813,350.265Zm11.931,6.888,4.669,2.7a5,5,0,0,0,4.525.008c1.245-.719,1.238-1.888-.015-2.612l-4.668-2.7a5,5,0,0,0-4.525-.009C1044.485,355.26,1044.491,356.429,1045.744,357.153ZM889.553,279.475l4.042,2.334a5.688,5.688,0,0,0,5.15.009l4.016-2.319c1.417-.818,1.41-2.149-.016-2.973l-4.042-2.333a5.692,5.692,0,0,0-5.15-.01l-4.016,2.319C888.12,277.321,888.127,278.653,889.553,279.475Zm20.879,9.091,4.016-2.319c1.417-.819,1.41-2.15-.016-2.973l-4.042-2.334a5.688,5.688,0,0,0-5.15-.009l-4.016,2.319c-1.417.818-1.41,2.149.017,2.973l4.042,2.334A5.7,5.7,0,0,0,910.432,288.566Zm2.5,4.4,4.042,2.334a5.688,5.688,0,0,0,5.15.009l4.016-2.319c1.417-.818,1.41-2.149-.017-2.973l-4.042-2.333a5.692,5.692,0,0,0-5.15-.01L912.912,290C911.495,290.817,911.5,292.148,912.928,292.971Zm11.688,6.748,4.042,2.334a5.694,5.694,0,0,0,5.148.009l4.018-2.319c1.417-.819,1.41-2.15-.017-2.973l-4.042-2.334a5.688,5.688,0,0,0-5.15-.009l-4.016,2.319C923.182,297.564,923.189,298.9,924.616,299.719Zm24.879,3.8-4.042-2.333a5.692,5.692,0,0,0-5.15-.01l-4.016,2.319c-1.417.819-1.411,2.15.015,2.973l4.042,2.334a5.688,5.688,0,0,0,5.15.009l4.016-2.319C950.927,305.673,950.921,304.341,949.495,303.517Zm11.688,6.748-4.043-2.334a5.686,5.686,0,0,0-5.149-.009l-4.016,2.319c-1.418.818-1.411,2.149.015,2.973l4.042,2.334a5.7,5.7,0,0,0,5.15.009l4.016-2.319C962.615,312.42,962.609,311.088,961.182,310.266Zm11.686,6.747-4.042-2.333a5.69,5.69,0,0,0-5.148-.01l-4.018,2.319c-1.417.819-1.41,2.15.016,2.973l4.042,2.334a5.688,5.688,0,0,0,5.15.009l4.016-2.319C974.3,319.168,974.3,317.837,972.869,317.013Zm11.688,6.748-4.042-2.334a5.688,5.688,0,0,0-5.15-.009l-4.016,2.319c-1.417.818-1.41,2.149.016,2.973l4.042,2.334a5.7,5.7,0,0,0,5.15.009l4.016-2.319C985.99,325.915,985.982,324.584,984.556,323.761Zm11.688,6.747-4.042-2.333a5.692,5.692,0,0,0-5.15-.01l-4.016,2.319c-1.417.819-1.41,2.15.017,2.973l4.042,2.334a5.688,5.688,0,0,0,5.15.009l4.016-2.319C997.678,332.663,997.67,331.332,996.244,330.508Zm11.688,6.748-4.042-2.334a5.688,5.688,0,0,0-5.15-.009l-4.016,2.319c-1.417.818-1.41,2.149.016,2.973l4.042,2.334a5.7,5.7,0,0,0,5.15.009l4.016-2.319C1009.365,339.41,1009.358,338.079,1007.931,337.257Zm-1.5,9.7,4.042,2.334a5.686,5.686,0,0,0,5.148.009l4.018-2.319c1.417-.818,1.41-2.149-.016-2.973l-4.042-2.333a5.692,5.692,0,0,0-5.15-.01l-4.016,2.319C1004.994,344.8,1005,346.13,1006.428,346.952Zm24.879,3.8-4.042-2.334a5.692,5.692,0,0,0-5.15-.009l-4.016,2.319c-1.417.818-1.411,2.149.015,2.973l4.042,2.334a5.7,5.7,0,0,0,5.15.009l4.016-2.319C1032.74,352.906,1032.733,351.575,1031.307,350.752Zm17.118,9.882-9.229-5.328a5.692,5.692,0,0,0-5.15-.009l-4.016,2.319c-1.417.819-1.41,2.15.016,2.973l9.229,5.328a5.688,5.688,0,0,0,5.15.009l4.016-2.319C1049.858,362.789,1049.85,361.458,1048.424,360.634Zm-169.7-74.909,9.229,5.328a5.688,5.688,0,0,0,5.15.009l4.016-2.319c1.417-.818,1.41-2.149-.016-2.973l-9.229-5.328a5.689,5.689,0,0,0-5.148-.009l-4.016,2.319C877.294,283.572,877.3,284.9,878.728,285.725Zm16.875,9.743,4.042,2.334a5.7,5.7,0,0,0,5.15.009l4.016-2.319c1.417-.819,1.41-2.15-.016-2.973l-4.042-2.334a5.692,5.692,0,0,0-5.15-.009l-4.016,2.319C894.169,293.313,894.177,294.644,895.6,295.468Zm15.729,9.081a5.685,5.685,0,0,0,5.148.009l4.018-2.319c1.417-.818,1.41-2.149-.016-2.973l-4.042-2.333a5.692,5.692,0,0,0-5.15-.01l-4.016,2.319c-1.417.819-1.411,2.15.016,2.974Zm11.686,6.748a5.692,5.692,0,0,0,5.15.009l4.016-2.319c1.419-.819,1.411-2.15-.015-2.973l-4.042-2.334a5.692,5.692,0,0,0-5.15-.009l-4.016,2.319c-1.417.818-1.411,2.149.015,2.973Zm11.647-.879-4.016,2.319c-1.419.819-1.411,2.15.015,2.974l4.042,2.333a5.688,5.688,0,0,0,5.15.009l4.016-2.319c1.417-.818,1.411-2.149-.015-2.973l-4.042-2.333A5.692,5.692,0,0,0,934.666,310.419Zm11.933,6.605-4.509,2.6c-1.282.74-1.275,1.944.014,2.688l4.539,2.62a5.141,5.141,0,0,0,4.654.008l4.511-2.6c1.28-.739,1.274-1.942-.015-2.686l-4.538-2.621A5.146,5.146,0,0,0,946.6,317.024Zm11.688,6.748-4.511,2.6c-1.281.739-1.274,1.942.015,2.686l4.539,2.62a5.146,5.146,0,0,0,4.654.009l4.511-2.6c1.281-.74,1.274-1.942-.015-2.688l-4.539-2.621A5.142,5.142,0,0,0,958.287,323.772Zm11.688,6.747-4.511,2.6c-1.281.74-1.274,1.943.015,2.688l4.539,2.62a5.142,5.142,0,0,0,4.654.008l4.511-2.6c1.281-.739,1.274-1.942-.015-2.686l-4.539-2.621A5.146,5.146,0,0,0,969.974,330.52Zm11.688,6.748-4.511,2.6c-1.28.739-1.274,1.942.015,2.686l4.539,2.621a5.145,5.145,0,0,0,4.654.009l4.511-2.6c1.281-.74,1.274-1.942-.015-2.688l-4.539-2.62A5.142,5.142,0,0,0,981.662,337.268Zm11.688,6.747-4.511,2.6c-1.282.74-1.274,1.943.015,2.688l4.538,2.62a5.146,5.146,0,0,0,4.654.009l4.509-2.605c1.282-.739,1.275-1.942-.014-2.686L998,344.024A5.146,5.146,0,0,0,993.349,344.015Zm16.383,14.668,4.511-2.6c1.282-.74,1.275-1.942-.014-2.686l-4.539-2.62a5.138,5.138,0,0,0-4.654-.009l-4.511,2.6c-1.282.739-1.275,1.942.014,2.686l4.54,2.621A5.143,5.143,0,0,0,1009.733,358.683Zm11.688,6.748,4.511-2.605c1.282-.739,1.274-1.942-.014-2.686l-4.54-2.621a5.143,5.143,0,0,0-4.653-.009l-4.511,2.6c-1.282.74-1.275,1.944.014,2.688l4.539,2.62A5.145,5.145,0,0,0,1021.42,365.431Zm16.427,1.6-4.539-2.62a5.142,5.142,0,0,0-4.654-.008l-4.511,2.6c-1.281.739-1.274,1.942.015,2.686l4.539,2.62a5.146,5.146,0,0,0,4.654.009l4.511-2.6C1039.143,368.975,1039.136,367.772,1037.847,367.028Zm-170.193-75.2,14.654,8.46a5.145,5.145,0,0,0,4.654.009l4.511-2.6c1.28-.74,1.274-1.944-.015-2.688L876.8,286.55a5.146,5.146,0,0,0-4.654-.009l-4.511,2.6C866.358,289.885,866.366,291.088,867.654,291.832Zm21.8,12.588L894,307.04a5.142,5.142,0,0,0,4.654.008l4.511-2.6c1.28-.739,1.274-1.942-.015-2.686l-4.539-2.621a5.146,5.146,0,0,0-4.654-.009l-4.511,2.6C888.161,302.473,888.168,303.676,889.457,304.42Zm11.688,6.747,4.539,2.62a5.146,5.146,0,0,0,4.654.009l4.511-2.6c1.28-.74,1.274-1.942-.015-2.688l-4.539-2.62a5.141,5.141,0,0,0-4.654-.008l-4.511,2.6C899.849,309.22,899.855,310.423,901.145,311.167Zm11.688,6.748,4.539,2.62a5.141,5.141,0,0,0,4.654.008l4.511-2.6c1.281-.739,1.274-1.942-.015-2.686l-4.539-2.62a5.146,5.146,0,0,0-4.654-.009l-4.511,2.6C911.536,315.968,911.543,317.171,912.832,317.915Zm20.88,9.376,4.509-2.6c1.282-.74,1.275-1.942-.014-2.688l-4.539-2.62a5.142,5.142,0,0,0-4.654-.008l-4.511,2.6c-1.282.739-1.274,1.942.015,2.686l4.539,2.62A5.146,5.146,0,0,0,933.712,327.292Zm11.686,6.747,4.511-2.6c1.282-.739,1.275-1.942-.014-2.686l-4.538-2.62a5.146,5.146,0,0,0-4.654-.009l-4.511,2.6c-1.282.74-1.276,1.944.014,2.688l4.54,2.62A5.139,5.139,0,0,0,945.4,334.039Zm11.688,6.748,4.511-2.6c1.282-.74,1.274-1.942-.014-2.688l-4.54-2.621a5.139,5.139,0,0,0-4.653-.008l-4.511,2.6c-1.282.739-1.276,1.942.014,2.686l4.539,2.621A5.146,5.146,0,0,0,957.086,340.787Zm11.688,6.747,4.511-2.6c1.281-.739,1.274-1.942-.015-2.686l-4.539-2.62a5.145,5.145,0,0,0-4.654-.009l-4.51,2.6c-1.282.74-1.275,1.944.014,2.688l4.539,2.62A5.142,5.142,0,0,0,968.774,347.534Zm11.688,6.748,4.511-2.6c1.28-.74,1.274-1.942-.015-2.688l-4.539-2.621a5.142,5.142,0,0,0-4.654-.008l-4.511,2.6c-1.28.739-1.274,1.942.015,2.686l4.539,2.62A5.146,5.146,0,0,0,980.461,354.283Zm11.688,6.747,4.511-2.6c1.281-.739,1.274-1.942-.015-2.686l-4.539-2.621a5.146,5.146,0,0,0-4.654-.009l-4.511,2.6c-1.28.74-1.274,1.943.015,2.688l4.539,2.62A5.142,5.142,0,0,0,992.149,361.03Zm2.495,4.119,4.539,2.62a5.146,5.146,0,0,0,4.654.009l4.511-2.6c1.281-.74,1.274-1.942-.015-2.686l-4.539-2.62a5.138,5.138,0,0,0-4.654-.009l-4.511,2.6C993.348,363.2,993.354,364.4,994.644,365.149Zm32.379,8.129-11.542-6.663a5.146,5.146,0,0,0-4.654-.009l-4.511,2.6c-1.28.74-1.274,1.943.015,2.688l11.541,6.663a5.146,5.146,0,0,0,4.654.009l4.511-2.6C1028.318,375.225,1028.311,374.022,1027.023,373.278ZM856.874,298.406l20.793,12a5.809,5.809,0,0,0,5.256.009l3.91-2.257c1.447-.835,1.44-2.194-.016-3.035l-20.793-12a5.809,5.809,0,0,0-5.256-.01l-3.91,2.258C855.411,296.206,855.417,297.565,856.874,298.406Zm28.546,16.481,3.933,2.271a5.812,5.812,0,0,0,5.258.01l3.91-2.258c1.447-.835,1.439-2.195-.016-3.035L894.57,309.6a5.812,5.812,0,0,0-5.258-.01l-3.909,2.258C883.956,312.687,883.964,314.046,885.42,314.887Zm11.688,6.747,3.933,2.272a5.812,5.812,0,0,0,5.257.009l3.91-2.257c1.447-.835,1.439-2.194-.016-3.035l-3.934-2.272a5.811,5.811,0,0,0-5.257-.009l-3.909,2.257C895.644,319.434,895.651,320.793,897.108,321.634Zm11.686,6.748,3.934,2.271a5.812,5.812,0,0,0,5.258.01l3.909-2.258c1.448-.835,1.44-2.195-.017-3.035l-3.933-2.271a5.812,5.812,0,0,0-5.258-.01l-3.91,2.258C907.331,326.183,907.339,327.542,908.794,328.382Zm11.688,6.747,3.934,2.272a5.812,5.812,0,0,0,5.257.009l3.909-2.257c1.448-.835,1.44-2.194-.016-3.035l-3.934-2.272a5.809,5.809,0,0,0-5.256-.009l-3.91,2.257C919.019,332.93,919.026,334.289,920.482,335.129Zm11.688,6.748,3.934,2.271a5.811,5.811,0,0,0,5.257.01l3.909-2.258c1.448-.835,1.44-2.193-.016-3.035l-3.934-2.271a5.809,5.809,0,0,0-5.256-.01l-3.91,2.258C930.706,339.678,930.713,341.037,932.169,341.878Zm11.688,6.747,3.934,2.272a5.812,5.812,0,0,0,5.257.009l3.909-2.257c1.447-.835,1.44-2.195-.016-3.035l-3.934-2.272a5.812,5.812,0,0,0-5.257-.009l-3.909,2.257C942.393,346.425,942.4,347.784,943.857,348.625Zm11.688,6.748,3.934,2.271a5.809,5.809,0,0,0,5.256.01l3.91-2.258c1.446-.835,1.44-2.193-.017-3.035l-3.934-2.271a5.812,5.812,0,0,0-5.258-.01l-3.909,2.258C954.08,353.173,954.088,354.532,955.544,355.373Zm11.688,6.747,3.933,2.272a5.812,5.812,0,0,0,5.257.009l3.91-2.257c1.447-.835,1.439-2.195-.016-3.035l-3.934-2.272a5.812,5.812,0,0,0-5.257-.009l-3.908,2.257C965.768,359.92,965.775,361.279,967.232,362.12Zm11.688,6.748,3.932,2.271a5.812,5.812,0,0,0,5.258.01l3.91-2.257c1.447-.837,1.439-2.194-.016-3.036l-3.934-2.271a5.812,5.812,0,0,0-5.257-.01l-3.908,2.258C977.455,366.669,977.463,368.028,978.92,368.868Zm11.686,6.747,3.934,2.272a5.812,5.812,0,0,0,5.257.009l3.909-2.257c1.448-.835,1.44-2.194-.016-3.035l-3.933-2.272a5.811,5.811,0,0,0-5.257-.009l-3.91,2.257C989.143,373.416,989.15,374.775,990.606,375.615Zm25.031,3.886-3.934-2.271a5.812,5.812,0,0,0-5.257-.009l-3.909,2.257c-1.448.835-1.44,2.194.017,3.035l3.934,2.271a5.805,5.805,0,0,0,5.256.01l3.91-2.257C1017.1,381.7,1017.094,380.343,1015.637,379.5ZM864.32,304.638l-9.12-5.265a5.812,5.812,0,0,0-5.257-.01l-3.91,2.257c-1.446.837-1.439,2.195.016,3.036l9.122,5.265a5.808,5.808,0,0,0,5.257.01l3.909-2.257C865.784,306.839,865.776,305.48,864.32,304.638Zm11.688,6.748-3.934-2.271a5.808,5.808,0,0,0-5.257-.01l-3.908,2.257c-1.448.835-1.44,2.194.016,3.035l3.934,2.272a5.809,5.809,0,0,0,5.256.009l3.91-2.257C877.47,313.586,877.464,312.227,876.007,311.386Zm11.688,6.747-3.934-2.271a5.812,5.812,0,0,0-5.258-.009l-3.909,2.257c-1.448.835-1.44,2.194.016,3.035l3.934,2.271a5.805,5.805,0,0,0,5.256.01l3.91-2.257C889.158,320.334,889.15,318.975,887.695,318.133Zm81.812,47.235-74.058-42.757a5.808,5.808,0,0,0-5.257-.01l-3.909,2.257c-1.448.835-1.44,2.195.016,3.035l74.058,42.758a5.809,5.809,0,0,0,5.256.009l3.91-2.257C970.97,367.568,970.962,366.209,969.506,365.368Zm11.688,6.748-3.934-2.272a5.812,5.812,0,0,0-5.257-.009l-3.908,2.257c-1.448.835-1.44,2.195.016,3.035l3.933,2.271a5.808,5.808,0,0,0,5.257.01l3.91-2.257C982.657,374.316,982.649,372.957,981.194,372.116Zm11.688,6.747-3.934-2.271a5.808,5.808,0,0,0-5.257-.01l-3.909,2.257c-1.448.835-1.44,2.194.015,3.036l3.934,2.271a5.808,5.808,0,0,0,5.257.009l3.91-2.257C994.345,381.063,994.337,379.7,992.882,378.863Zm11.93,6.888-3.934-2.271a5.809,5.809,0,0,0-5.256-.01l-3.91,2.258c-1.447.835-1.44,2.194.016,3.035l3.934,2.271a5.812,5.812,0,0,0,5.257.01l3.908-2.258C1006.276,387.951,1006.268,386.593,1004.811,385.751Z" transform="translate(22.456 46.659)" fill="#e5e9ff"/>
      <g id="Grupo_930041" data-name="Grupo 930041" transform="translate(915.211 101.724)">
        <path id="Trazado_611160" data-name="Trazado 611160" d="M1115,219.16,1089.01,398.867l-5.388,9.508L886.286,288.165l50.591-171.06Z" transform="translate(-881.687 -95.978)" fill="url(#linear-gradient-17)" style="mix-blend-mode: multiply;isolation: isolate"/>
        <path id="Trazado_611161" data-name="Trazado 611161" d="M1084.7,218.712V411.952L883.384,295.873V102.632Z" transform="translate(-882.464 -99.853)" fill="url(#linear-gradient-18)"/>
        <path id="Trazado_611162" data-name="Trazado 611162" d="M1084.9,216.52V241.3l-.92.46-200.4-116.539-.92-24.321.92-.46Z" transform="translate(-882.658 -100.44)" fill="url(#linear-gradient-19)"/>
        <path id="Trazado_611163" data-name="Trazado 611163" d="M1083.978,219.074V412.315L882.658,296.236V102.995Z" transform="translate(-882.658 -99.756)" fill="#0a183f"/>
        <path id="Trazado_611164" data-name="Trazado 611164" d="M887.057,285.319V129.325l190.166,109.652V394.971Z" transform="translate(-881.481 -92.706)" fill="#0f1e52"/>
        <path id="Trazado_611165" data-name="Trazado 611165" d="M1083.978,216.883v24.78L882.658,125.584V100.8Z" transform="translate(-882.658 -100.343)" fill="url(#linear-gradient-20)"/>
        <path id="Trazado_611166" data-name="Trazado 611166" d="M890.5,112.56l13.37,7.719c.508.294.922.06.922-.525a2.035,2.035,0,0,0-.922-1.591l-13.37-7.719c-.51-.294-.923-.058-.923.526A2.031,2.031,0,0,0,890.5,112.56Zm13.37,10.365-13.37-7.719c-.51-.294-.923-.058-.923.526a2.031,2.031,0,0,0,.923,1.59l13.37,7.719c.508.294.922.058.922-.526A2.032,2.032,0,0,0,903.867,122.925Zm0,4.762-13.37-7.719c-.51-.294-.923-.06-.923.525a2.033,2.033,0,0,0,.923,1.591l13.37,7.719c.508.294.922.058.922-.526A2.032,2.032,0,0,0,903.867,127.687Z" transform="translate(-880.807 -97.796)" fill="#fff"/>
        <g id="Grupo_930040" data-name="Grupo 930040" transform="translate(170.201 108.77)">
          <path id="Trazado_611167" data-name="Trazado 611167" d="M1036.268,199.489c0,1.815-1.282,2.546-2.864,1.633a6.312,6.312,0,0,1-2.864-4.939c0-1.815,1.283-2.547,2.864-1.633A6.307,6.307,0,0,1,1036.268,199.489Z" transform="translate(-1013.262 -184.116)" fill="#fff"/>
          <path id="Trazado_611168" data-name="Trazado 611168" d="M1029.454,195.529c0,1.815-1.283,2.546-2.864,1.633a6.309,6.309,0,0,1-2.864-4.939c0-1.815,1.282-2.546,2.864-1.633A6.312,6.312,0,0,1,1029.454,195.529Z" transform="translate(-1015.086 -185.177)" fill="#fff"/>
          <path id="Trazado_611169" data-name="Trazado 611169" d="M1022.639,191.571c0,1.814-1.282,2.546-2.864,1.632a6.31,6.31,0,0,1-2.864-4.939c0-1.814,1.283-2.546,2.864-1.633A6.309,6.309,0,0,1,1022.639,191.571Z" transform="translate(-1016.911 -186.237)" fill="#fff"/>
        </g>
      </g>
      <g id="Grupo_930066" data-name="Grupo 930066" transform="translate(934.537 167.578)">
        <g id="Grupo_930047" data-name="Grupo 930047">
          <g id="Grupo_930042" data-name="Grupo 930042" transform="translate(137.87 79.869)">
            <path id="Trazado_611170" data-name="Trazado 611170" d="M1021.237,219.608v2.659l-11.92-6.882v17.478l23.776,13.727V226.453Z" transform="translate(-1005.939 -215.385)" fill="#f1f2f2" style="mix-blend-mode: multiply;isolation: isolate"/>
            <path id="Trazado_611171" data-name="Trazado 611171" d="M1020.1,219.989v2.659l-11.92-6.882v17.478l21.87,14.908,1.906-1.181V226.834Z" transform="translate(-1006.245 -215.283)" fill="url(#linear-gradient-21)"/>
            <path id="Trazado_611172" data-name="Trazado 611172" d="M1007.319,233.319l23.776,13.727V230.657l-23.776-13.727Z" transform="translate(-1006.474 -214.972)" fill="#fff"/>
            <path id="Trazado_611173" data-name="Trazado 611173" d="M1006.653,233.522l23.776,13.727V232.657l-23.776-13.727Z" transform="translate(-1006.653 -214.436)" fill="url(#linear-gradient-22)"/>
          </g>
          <g id="Grupo_930043" data-name="Grupo 930043" transform="translate(103.402 59.902)">
            <path id="Trazado_611174" data-name="Trazado 611174" d="M994.05,203.858v2.659l-11.92-6.882v17.478l23.776,13.727V210.7Z" transform="translate(-978.752 -199.635)" fill="#f1f2f2" style="mix-blend-mode: multiply;isolation: isolate"/>
            <path id="Trazado_611175" data-name="Trazado 611175" d="M992.908,204.239V206.9l-11.92-6.882v17.478l21.87,14.908,1.906-1.181V211.084Z" transform="translate(-979.058 -199.533)" fill="url(#linear-gradient-21)"/>
            <path id="Trazado_611176" data-name="Trazado 611176" d="M980.132,217.568l23.776,13.727V214.907L980.132,201.18Z" transform="translate(-979.287 -199.222)" fill="#fff"/>
            <path id="Trazado_611177" data-name="Trazado 611177" d="M979.465,217.772l23.776,13.727V216.907L979.465,203.18Z" transform="translate(-979.465 -198.686)" fill="url(#linear-gradient-22)"/>
          </g>
          <g id="Grupo_930044" data-name="Grupo 930044" transform="translate(68.935 39.935)">
            <path id="Trazado_611178" data-name="Trazado 611178" d="M966.862,188.108v2.659l-11.92-6.882v17.478l23.776,13.727V194.953Z" transform="translate(-951.564 -183.885)" fill="#f1f2f2" style="mix-blend-mode: multiply;isolation: isolate"/>
            <path id="Trazado_611179" data-name="Trazado 611179" d="M965.72,188.489v2.659l-11.92-6.882v17.478l21.87,14.908,1.905-1.181V195.334Z" transform="translate(-951.87 -183.783)" fill="url(#linear-gradient-21)"/>
            <path id="Trazado_611180" data-name="Trazado 611180" d="M952.944,201.818l23.776,13.727V199.157L952.944,185.43Z" transform="translate(-952.099 -183.472)" fill="#fff"/>
            <path id="Trazado_611181" data-name="Trazado 611181" d="M952.278,202.022l23.776,13.727V201.157L952.278,187.43Z" transform="translate(-952.278 -182.936)" fill="url(#linear-gradient-22)"/>
          </g>
          <g id="Grupo_930045" data-name="Grupo 930045" transform="translate(34.467 19.967)">
            <path id="Trazado_611182" data-name="Trazado 611182" d="M939.675,172.358v2.659l-11.92-6.882v17.478L951.53,199.34V179.2Z" transform="translate(-924.377 -168.135)" fill="#f1f2f2" style="mix-blend-mode: multiply;isolation: isolate"/>
            <path id="Trazado_611183" data-name="Trazado 611183" d="M938.533,172.739V175.4l-11.92-6.882v17.478l21.87,14.908,1.906-1.181V179.584Z" transform="translate(-924.683 -168.033)" fill="url(#linear-gradient-21)"/>
            <path id="Trazado_611184" data-name="Trazado 611184" d="M925.757,186.068,949.533,199.8V183.407L925.757,169.68Z" transform="translate(-924.912 -167.722)" fill="#fff"/>
            <path id="Trazado_611185" data-name="Trazado 611185" d="M925.09,186.272,948.866,200V185.407L925.09,171.68Z" transform="translate(-925.09 -167.186)" fill="url(#linear-gradient-22)"/>
          </g>
          <g id="Grupo_930046" data-name="Grupo 930046">
            <path id="Trazado_611186" data-name="Trazado 611186" d="M912.487,156.608v2.659l-11.92-6.882v17.478l23.776,13.727V163.453Z" transform="translate(-897.189 -152.385)" fill="#f1f2f2" style="mix-blend-mode: multiply;isolation: isolate"/>
            <path id="Trazado_611187" data-name="Trazado 611187" d="M911.345,156.989v2.659l-11.92-6.882v17.478l21.87,14.908,1.905-1.181V163.834Z" transform="translate(-897.495 -152.283)" fill="url(#linear-gradient-21)"/>
            <path id="Trazado_611188" data-name="Trazado 611188" d="M898.569,170.318l23.776,13.727V167.657L898.569,153.93Z" transform="translate(-897.724 -151.972)" fill="#fff"/>
            <path id="Trazado_611189" data-name="Trazado 611189" d="M897.9,170.522l23.776,13.727V169.657L897.9,155.93Z" transform="translate(-897.903 -151.436)" fill="url(#linear-gradient-22)"/>
          </g>
        </g>
        <g id="Grupo_930053" data-name="Grupo 930053" transform="translate(0 97.301)">
          <g id="Grupo_930048" data-name="Grupo 930048" transform="translate(137.87 79.869)">
            <path id="Trazado_611190" data-name="Trazado 611190" d="M1021.237,296.358v2.659l-11.92-6.882v17.478l23.776,13.727V303.2Z" transform="translate(-1005.939 -292.135)" fill="#f1f2f2" style="mix-blend-mode: multiply;isolation: isolate"/>
            <path id="Trazado_611191" data-name="Trazado 611191" d="M1020.1,296.739V299.4l-11.92-6.882v17.478l21.87,14.908,1.906-1.181V303.584Z" transform="translate(-1006.245 -292.033)" fill="url(#linear-gradient-21)"/>
            <path id="Trazado_611192" data-name="Trazado 611192" d="M1007.319,310.068,1031.1,323.8V307.407l-23.776-13.727Z" transform="translate(-1006.474 -291.722)" fill="#fff"/>
            <path id="Trazado_611193" data-name="Trazado 611193" d="M1006.653,310.272,1030.428,324V309.407l-23.776-13.727Z" transform="translate(-1006.653 -291.186)" fill="url(#linear-gradient-22)"/>
          </g>
          <g id="Grupo_930049" data-name="Grupo 930049" transform="translate(103.402 59.902)">
            <path id="Trazado_611194" data-name="Trazado 611194" d="M994.05,280.608v2.659l-11.92-6.882v17.478l23.776,13.727V287.453Z" transform="translate(-978.752 -276.385)" fill="#f1f2f2" style="mix-blend-mode: multiply;isolation: isolate"/>
            <path id="Trazado_611195" data-name="Trazado 611195" d="M992.908,280.989v2.659l-11.92-6.882v17.478l21.87,14.908,1.906-1.181V287.834Z" transform="translate(-979.058 -276.283)" fill="url(#linear-gradient-21)"/>
            <path id="Trazado_611196" data-name="Trazado 611196" d="M980.132,294.319l23.776,13.727V291.657L980.132,277.93Z" transform="translate(-979.287 -275.972)" fill="#fff"/>
            <path id="Trazado_611197" data-name="Trazado 611197" d="M979.465,294.522l23.776,13.727V293.657L979.465,279.93Z" transform="translate(-979.465 -275.436)" fill="url(#linear-gradient-22)"/>
          </g>
          <g id="Grupo_930050" data-name="Grupo 930050" transform="translate(68.935 39.935)">
            <path id="Trazado_611198" data-name="Trazado 611198" d="M966.862,264.858v2.659l-11.92-6.882v17.478l23.776,13.727V271.7Z" transform="translate(-951.564 -260.635)" fill="#f1f2f2" style="mix-blend-mode: multiply;isolation: isolate"/>
            <path id="Trazado_611199" data-name="Trazado 611199" d="M965.72,265.239V267.9l-11.92-6.882v17.478L975.67,293.4l1.905-1.181V272.084Z" transform="translate(-951.87 -260.533)" fill="url(#linear-gradient-21)"/>
            <path id="Trazado_611200" data-name="Trazado 611200" d="M952.944,278.568,976.72,292.3V275.907L952.944,262.18Z" transform="translate(-952.099 -260.222)" fill="#fff"/>
            <path id="Trazado_611201" data-name="Trazado 611201" d="M952.278,278.772,976.053,292.5V277.907L952.278,264.18Z" transform="translate(-952.278 -259.686)" fill="url(#linear-gradient-22)"/>
          </g>
          <g id="Grupo_930051" data-name="Grupo 930051" transform="translate(34.467 19.967)">
            <path id="Trazado_611202" data-name="Trazado 611202" d="M939.675,249.108v2.659l-11.92-6.882v17.478L951.53,276.09V255.953Z" transform="translate(-924.377 -244.885)" fill="#f1f2f2" style="mix-blend-mode: multiply;isolation: isolate"/>
            <path id="Trazado_611203" data-name="Trazado 611203" d="M938.533,249.489v2.659l-11.92-6.882v17.478l21.87,14.908,1.906-1.181V256.334Z" transform="translate(-924.683 -244.783)" fill="url(#linear-gradient-21)"/>
            <path id="Trazado_611204" data-name="Trazado 611204" d="M925.757,262.819l23.776,13.727V260.157L925.757,246.43Z" transform="translate(-924.912 -244.472)" fill="#fff"/>
            <path id="Trazado_611205" data-name="Trazado 611205" d="M925.09,263.022l23.776,13.727V262.157L925.09,248.43Z" transform="translate(-925.09 -243.936)" fill="url(#linear-gradient-22)"/>
          </g>
          <g id="Grupo_930052" data-name="Grupo 930052">
            <path id="Trazado_611206" data-name="Trazado 611206" d="M912.487,233.358v2.659l-11.92-6.882v17.478l23.776,13.727V240.2Z" transform="translate(-897.189 -229.135)" fill="#f1f2f2" style="mix-blend-mode: multiply;isolation: isolate"/>
            <path id="Trazado_611207" data-name="Trazado 611207" d="M911.345,233.739V236.4l-11.92-6.882v17.478L921.3,261.9l1.905-1.181V240.584Z" transform="translate(-897.495 -229.033)" fill="url(#linear-gradient-21)"/>
            <path id="Trazado_611208" data-name="Trazado 611208" d="M898.569,247.068,922.345,260.8V244.407L898.569,230.68Z" transform="translate(-897.724 -228.722)" fill="#fff"/>
            <path id="Trazado_611209" data-name="Trazado 611209" d="M897.9,247.272,921.678,261V246.407L897.9,232.68Z" transform="translate(-897.903 -228.186)" fill="url(#linear-gradient-22)"/>
          </g>
        </g>
        <g id="Grupo_930059" data-name="Grupo 930059" transform="translate(0 64.656)">
          <g id="Grupo_930054" data-name="Grupo 930054" transform="translate(137.87 79.869)">
            <path id="Trazado_611210" data-name="Trazado 611210" d="M1021.237,270.608v2.659l-11.92-6.882v17.478l23.776,13.727V277.453Z" transform="translate(-1005.939 -266.385)" fill="#f1f2f2" style="mix-blend-mode: multiply;isolation: isolate"/>
            <path id="Trazado_611211" data-name="Trazado 611211" d="M1020.1,270.989v2.659l-11.92-6.882v17.478l21.87,14.908,1.906-1.181V277.834Z" transform="translate(-1006.245 -266.283)" fill="url(#linear-gradient-21)"/>
            <path id="Trazado_611212" data-name="Trazado 611212" d="M1007.319,284.319l23.776,13.727V281.657l-23.776-13.727Z" transform="translate(-1006.474 -265.972)" fill="#fff"/>
            <path id="Trazado_611213" data-name="Trazado 611213" d="M1006.653,284.522l23.776,13.727V283.657l-23.776-13.727Z" transform="translate(-1006.653 -265.436)" fill="url(#linear-gradient-22)"/>
          </g>
          <g id="Grupo_930055" data-name="Grupo 930055" transform="translate(103.402 59.902)">
            <path id="Trazado_611214" data-name="Trazado 611214" d="M994.05,254.858v2.659l-11.92-6.882v17.478l23.776,13.727V261.7Z" transform="translate(-978.752 -250.635)" fill="#f1f2f2" style="mix-blend-mode: multiply;isolation: isolate"/>
            <path id="Trazado_611215" data-name="Trazado 611215" d="M992.908,255.239V257.9l-11.92-6.882v17.478l21.87,14.908,1.906-1.181V262.084Z" transform="translate(-979.058 -250.533)" fill="url(#linear-gradient-21)"/>
            <path id="Trazado_611216" data-name="Trazado 611216" d="M980.132,268.568l23.776,13.727V265.907L980.132,252.18Z" transform="translate(-979.287 -250.222)" fill="#fff"/>
            <path id="Trazado_611217" data-name="Trazado 611217" d="M979.465,268.772l23.776,13.727V267.907L979.465,254.18Z" transform="translate(-979.465 -249.686)" fill="url(#linear-gradient-22)"/>
          </g>
          <g id="Grupo_930056" data-name="Grupo 930056" transform="translate(68.935 39.935)">
            <path id="Trazado_611218" data-name="Trazado 611218" d="M966.862,239.108v2.659l-11.92-6.882v17.478l23.776,13.727V245.953Z" transform="translate(-951.564 -234.885)" fill="#f1f2f2" style="mix-blend-mode: multiply;isolation: isolate"/>
            <path id="Trazado_611219" data-name="Trazado 611219" d="M965.72,239.489v2.659l-11.92-6.882v17.478l21.87,14.908,1.905-1.181V246.334Z" transform="translate(-951.87 -234.783)" fill="url(#linear-gradient-21)"/>
            <path id="Trazado_611220" data-name="Trazado 611220" d="M952.944,252.819l23.776,13.727V250.157L952.944,236.43Z" transform="translate(-952.099 -234.472)" fill="#fff"/>
            <path id="Trazado_611221" data-name="Trazado 611221" d="M952.278,253.022l23.776,13.727V252.157L952.278,238.43Z" transform="translate(-952.278 -233.936)" fill="url(#linear-gradient-22)"/>
          </g>
          <g id="Grupo_930057" data-name="Grupo 930057" transform="translate(34.467 19.967)">
            <path id="Trazado_611222" data-name="Trazado 611222" d="M939.675,223.358v2.659l-11.92-6.882v17.478L951.53,250.34V230.2Z" transform="translate(-924.377 -219.135)" fill="#f1f2f2" style="mix-blend-mode: multiply;isolation: isolate"/>
            <path id="Trazado_611223" data-name="Trazado 611223" d="M938.533,223.739V226.4l-11.92-6.882v17.478l21.87,14.908,1.906-1.181V230.584Z" transform="translate(-924.683 -219.033)" fill="url(#linear-gradient-21)"/>
            <path id="Trazado_611224" data-name="Trazado 611224" d="M925.757,237.068,949.533,250.8V234.407L925.757,220.68Z" transform="translate(-924.912 -218.722)" fill="#fff"/>
            <path id="Trazado_611225" data-name="Trazado 611225" d="M925.09,237.272,948.866,251V236.407L925.09,222.68Z" transform="translate(-925.09 -218.186)" fill="url(#linear-gradient-22)"/>
          </g>
          <g id="Grupo_930058" data-name="Grupo 930058">
            <path id="Trazado_611226" data-name="Trazado 611226" d="M912.487,207.608v2.659l-11.92-6.882v17.478l23.776,13.727V214.453Z" transform="translate(-897.189 -203.385)" fill="#f1f2f2" style="mix-blend-mode: multiply;isolation: isolate"/>
            <path id="Trazado_611227" data-name="Trazado 611227" d="M911.345,207.989v2.659l-11.92-6.882v17.478l21.87,14.908,1.905-1.181V214.834Z" transform="translate(-897.495 -203.283)" fill="url(#linear-gradient-21)"/>
            <path id="Trazado_611228" data-name="Trazado 611228" d="M898.569,221.318l23.776,13.727V218.657L898.569,204.93Z" transform="translate(-897.724 -202.972)" fill="#fff"/>
            <path id="Trazado_611229" data-name="Trazado 611229" d="M897.9,221.522l23.776,13.727V220.657L897.9,206.93Z" transform="translate(-897.903 -202.436)" fill="url(#linear-gradient-22)"/>
          </g>
        </g>
        <g id="Grupo_930065" data-name="Grupo 930065" transform="translate(0 32.645)">
          <g id="Grupo_930060" data-name="Grupo 930060" transform="translate(137.87 79.869)">
            <path id="Trazado_611230" data-name="Trazado 611230" d="M1021.237,245.358v2.659l-11.92-6.882v17.478l23.776,13.727V252.2Z" transform="translate(-1005.939 -241.135)" fill="#f1f2f2" style="mix-blend-mode: multiply;isolation: isolate"/>
            <path id="Trazado_611231" data-name="Trazado 611231" d="M1020.1,245.739V248.4l-11.92-6.882v17.478l21.87,14.908,1.906-1.181V252.584Z" transform="translate(-1006.245 -241.033)" fill="url(#linear-gradient-21)"/>
            <path id="Trazado_611232" data-name="Trazado 611232" d="M1007.319,259.068,1031.1,272.8V256.407l-23.776-13.727Z" transform="translate(-1006.474 -240.722)" fill="#fff"/>
            <path id="Trazado_611233" data-name="Trazado 611233" d="M1006.653,259.272,1030.428,273V258.407l-23.776-13.727Z" transform="translate(-1006.653 -240.186)" fill="url(#linear-gradient-22)"/>
          </g>
          <g id="Grupo_930061" data-name="Grupo 930061" transform="translate(103.402 59.902)">
            <path id="Trazado_611234" data-name="Trazado 611234" d="M994.05,229.608v2.659l-11.92-6.882v17.478l23.776,13.727V236.453Z" transform="translate(-978.752 -225.385)" fill="#f1f2f2" style="mix-blend-mode: multiply;isolation: isolate"/>
            <path id="Trazado_611235" data-name="Trazado 611235" d="M992.908,229.989v2.659l-11.92-6.882v17.478l21.87,14.908,1.906-1.181V236.834Z" transform="translate(-979.058 -225.283)" fill="url(#linear-gradient-21)"/>
            <path id="Trazado_611236" data-name="Trazado 611236" d="M980.132,243.319l23.776,13.727V240.657L980.132,226.93Z" transform="translate(-979.287 -224.972)" fill="#fff"/>
            <path id="Trazado_611237" data-name="Trazado 611237" d="M979.465,243.522l23.776,13.727V242.657L979.465,228.93Z" transform="translate(-979.465 -224.436)" fill="url(#linear-gradient-22)"/>
          </g>
          <g id="Grupo_930062" data-name="Grupo 930062" transform="translate(68.935 39.935)">
            <path id="Trazado_611238" data-name="Trazado 611238" d="M966.862,213.858v2.659l-11.92-6.882v17.478l23.776,13.727V220.7Z" transform="translate(-951.564 -209.635)" fill="#f1f2f2" style="mix-blend-mode: multiply;isolation: isolate"/>
            <path id="Trazado_611239" data-name="Trazado 611239" d="M965.72,214.239V216.9l-11.92-6.882v17.478L975.67,242.4l1.905-1.181V221.084Z" transform="translate(-951.87 -209.533)" fill="url(#linear-gradient-21)"/>
            <path id="Trazado_611240" data-name="Trazado 611240" d="M952.944,227.568,976.72,241.3V224.907L952.944,211.18Z" transform="translate(-952.099 -209.222)" fill="#fff"/>
            <path id="Trazado_611241" data-name="Trazado 611241" d="M952.278,227.772,976.053,241.5V226.907L952.278,213.18Z" transform="translate(-952.278 -208.686)" fill="url(#linear-gradient-22)"/>
          </g>
          <g id="Grupo_930063" data-name="Grupo 930063" transform="translate(34.467 19.967)">
            <path id="Trazado_611242" data-name="Trazado 611242" d="M939.675,198.108v2.659l-11.92-6.882v17.478L951.53,225.09V204.953Z" transform="translate(-924.377 -193.885)" fill="#f1f2f2" style="mix-blend-mode: multiply;isolation: isolate"/>
            <path id="Trazado_611243" data-name="Trazado 611243" d="M938.533,198.489v2.659l-11.92-6.882v17.478l21.87,14.908,1.906-1.181V205.334Z" transform="translate(-924.683 -193.783)" fill="url(#linear-gradient-21)"/>
            <path id="Trazado_611244" data-name="Trazado 611244" d="M925.757,211.818l23.776,13.727V209.157L925.757,195.43Z" transform="translate(-924.912 -193.472)" fill="#fff"/>
            <path id="Trazado_611245" data-name="Trazado 611245" d="M925.09,212.022l23.776,13.727V211.157L925.09,197.43Z" transform="translate(-925.09 -192.936)" fill="url(#linear-gradient-22)"/>
          </g>
          <g id="Grupo_930064" data-name="Grupo 930064">
            <path id="Trazado_611246" data-name="Trazado 611246" d="M912.487,182.358v2.659l-11.92-6.882v17.478l23.776,13.727V189.2Z" transform="translate(-897.189 -178.135)" fill="#f1f2f2" style="mix-blend-mode: multiply;isolation: isolate"/>
            <path id="Trazado_611247" data-name="Trazado 611247" d="M911.345,182.739V185.4l-11.92-6.882v17.478L921.3,210.9l1.905-1.181V189.584Z" transform="translate(-897.495 -178.033)" fill="url(#linear-gradient-21)"/>
            <path id="Trazado_611248" data-name="Trazado 611248" d="M898.569,196.069,922.345,209.8V193.407L898.569,179.68Z" transform="translate(-897.724 -177.722)" fill="#fff"/>
            <path id="Trazado_611249" data-name="Trazado 611249" d="M897.9,196.272,921.678,210V195.407L897.9,181.68Z" transform="translate(-897.903 -177.186)" fill="url(#linear-gradient-22)"/>
          </g>
        </g>
      </g>
      <g id="Grupo_930069" data-name="Grupo 930069" transform="translate(988.915 163.488)">
        <g id="Grupo_930068" data-name="Grupo 930068">
          <path id="Trazado_611250" data-name="Trazado 611250" d="M1123.49,233.15,978.3,149.159,940.8,171.432v35.136l145.113,83.85v.016l.014-.008.014.008v-.016l37.553-22.132Z" transform="translate(-940.795 -149.159)" fill="url(#linear-gradient-61)" style="mix-blend-mode: screen;isolation: isolate"/>
          <g id="Grupo_930067" data-name="Grupo 930067" transform="translate(0 16.303)" opacity="0.8">
            <path id="Trazado_611251" data-name="Trazado 611251" d="M1055.259,234.309v34.942l10.127-5.845V228.27Z" transform="translate(-910.146 -144.278)" fill="#f9d97d"/>
            <path id="Trazado_611252" data-name="Trazado 611252" d="M1085.937,250.788V285.73L940.8,201.864V166.728Z" transform="translate(-940.795 -160.757)" fill="#efcc5d"/>
            <path id="Trazado_611253" data-name="Trazado 611253" d="M940.8,167.989l145.141,84.06,10.1-6.039-145.19-83.992Z" transform="translate(-940.795 -162.018)" fill="#e6933e"/>
          </g>
        </g>
        <path id="Trazado_611254" data-name="Trazado 611254" d="M1053.81,255.1l-4.437-7.654a2.133,2.133,0,0,0-1.714-1.244l-1.3-2.243c1.949-1.828,1.757-6.159-.589-10.207-2.566-4.425-6.723-6.824-9.288-5.363s-2.565,6.234,0,10.657c2.347,4.048,6.025,6.392,8.6,5.642l1.3,2.243a2.106,2.106,0,0,0,.222,2.1l4.437,7.654c.555.958,1.457,1.478,2.012,1.161l.761-.434C1054.367,257.09,1054.367,256.056,1053.81,255.1Zm-9.626-13.423c-1.69.964-4.43-.619-6.118-3.533s-1.69-6.056,0-7.02,4.428.619,6.118,3.532S1045.873,240.711,1044.184,241.675Z" transform="translate(-915.689 -128.058)" fill="#fff"/>
        <path id="Trazado_611255" data-name="Trazado 611255" d="M1052.477,255.421,948.431,195.115V178.35l104.046,60.307Z" transform="translate(-938.751 -141.342)" fill="#fff"/>
      </g>
      <g id="Grupo_930071" data-name="Grupo 930071" transform="translate(861.604 192.623)">
        <path id="Trazado_611256" data-name="Trazado 611256" d="M913.785,188.192l-12.577,7.494-18-11.219V286.335L958.436,345.7l18.473-11.358v-109.7Z" transform="translate(-828.905 -168.839)" fill="url(#linear-gradient-62)" style="mix-blend-mode: multiply;isolation: isolate"/>
        <path id="Trazado_611257" data-name="Trazado 611257" d="M911.947,197.745v8.76l-58.793-33.943a3.116,3.116,0,0,0-4.673,2.7V283.424l112.172,65.2a8.229,8.229,0,0,0,8.473-.119l2.395-1.485a7.5,7.5,0,0,0,3.55-6.377V233.691a8.482,8.482,0,0,0-4.241-7.347l-54.21-31.3A3.115,3.115,0,0,0,911.947,197.745Z" transform="translate(-838.203 -172.14)" fill="#e6933e"/>
        <g id="Grupo_930070" data-name="Grupo 930070" transform="translate(10.829 0.003)" style="mix-blend-mode: color-dodge;isolation: isolate">
          <path id="Trazado_611258" data-name="Trazado 611258" d="M851.752,173.633l58.793,33.943v-1.814l-57.506-33.2a3.1,3.1,0,0,0-4.123.953A3.059,3.059,0,0,1,851.752,173.633Z" transform="translate(-848.916 -172.143)" fill="url(#radial-gradient)"/>
          <path id="Trazado_611259" data-name="Trazado 611259" d="M957.309,221.6,903.1,190.3a3.1,3.1,0,0,0-4.123.953,3.054,3.054,0,0,1,2.837.118l54.21,31.3a8.484,8.484,0,0,1,4.241,7.347v106.95a7.5,7.5,0,0,1-2.052,5.155,7.494,7.494,0,0,0,3.338-6.226V228.942A8.482,8.482,0,0,0,957.309,221.6Z" transform="translate(-835.511 -167.394)" fill="url(#radial-gradient-2)"/>
        </g>
        <path id="Trazado_611260" data-name="Trazado 611260" d="M843.924,272.611,970.514,345.7v-96.07l-126.59-73.087Z" transform="translate(-839.424 -170.962)" fill="#fff"/>
        <path id="Trazado_611261" data-name="Trazado 611261" d="M843.924,273.824l124.349,71.793V255.772L843.924,183.979Z" transform="translate(-839.424 -168.97)" fill="#e6cfc8" style="mix-blend-mode: multiply;isolation: isolate"/>
        <path id="Trazado_611262" data-name="Trazado 611262" d="M845.858,277.19l117.175,67.651a8.137,8.137,0,0,0,7.929.117l.764-.412-.8.306a2.922,2.922,0,0,1-3.966-2.73V261.679a8.482,8.482,0,0,0-4.241-7.347l-117.676-67.94a3.116,3.116,0,0,0-4.674,2.7v78.6A10.968,10.968,0,0,0,845.858,277.19Z" transform="translate(-840.374 -168.437)" fill="#efcc5d"/>
        <path id="Trazado_611263" data-name="Trazado 611263" d="M970.763,344.85a2.922,2.922,0,0,1-3.966-2.73V261.678a8.482,8.482,0,0,0-4.241-7.347l-117.676-67.94a3.1,3.1,0,0,0-3.884.653,3.049,3.049,0,0,1,2.759.151l117.676,67.94a8.484,8.484,0,0,1,4.242,7.347v80.443a2.922,2.922,0,0,0,2.516,2.894,8.126,8.126,0,0,0,2.605-.862l.766-.412Z" transform="translate(-840.207 -168.436)" fill="url(#radial-gradient-3)" style="mix-blend-mode: color-dodge;isolation: isolate"/>
      </g>
      <g id="Grupo_930073" data-name="Grupo 930073" transform="translate(894.453 247.627)">
        <g id="Grupo_930072" data-name="Grupo 930072" transform="translate(0.089)">
          <path id="Trazado_611264" data-name="Trazado 611264" d="M928.936,248.568c-10.14-5.752-20.052-15.005-28.36-26.467l-.113-.065c-8.309,1.869-18.222-.326-28.36-6.282l-.388-.227-5.36,3.05,6.149,4.045c1.923,25.662,11.94,46.729,28.06,71.672l.393.227c2.9-1.138-1.492,1.485,1,.079.108-.061,7.064-3.779,7.171-3.84,11.182-6.417,18.087-16.26,19.65-35.306l.547-6.667Z" transform="translate(-866.355 -215.527)" fill="url(#linear-gradient-63)"/>
          <path id="Trazado_611265" data-name="Trazado 611265" d="M926.075,247.193c-10.14-5.752-20.052-15.005-28.36-26.467l-.113-.065c-.054.013-.11.023-.165.034l-20.4,11.788,41.774,19.162,7.647-4.233Z" transform="translate(-863.494 -214.152)" fill="url(#linear-gradient-64)"/>
        </g>
        <path id="Trazado_611266" data-name="Trazado 611266" d="M924.095,250.638c-10.138-5.752-20.052-15-28.36-26.466l-.113-.065c-8.308,1.869-18.22-.326-28.36-6.282l-.387-.227.547,7.3c1.924,25.661,11.94,46.729,28.061,71.672l.392.226c16.121-6.329,26.138-15.829,28.061-39.27l.548-6.667Z" transform="translate(-866.127 -214.972)" fill="url(#radial-gradient-4)" style="mix-blend-mode: screen;isolation: isolate"/>
        <path id="Trazado_611267" data-name="Trazado 611267" d="M923.506,250.875c-10.14-5.752-20.052-15-28.36-26.466l-.113-.065c-8.309,1.867-18.222-.326-28.36-6.282l-.388-.228.548,7.3c1.923,25.662,11.94,46.73,28.06,71.672l.393.227c16.121-6.329,26.136-15.831,28.061-39.27l.546-6.668Z" transform="translate(-866.285 -214.909)" fill="url(#linear-gradient-65)"/>
        <path id="Trazado_611268" data-name="Trazado 611268" d="M923.506,250.875c-10.14-5.752-20.052-15-28.36-26.466l-.113-.065c-8.309,1.867-18.222-.326-28.36-6.282l-.388-.228.548,7.3c1.923,25.662,11.94,46.73,28.06,71.672l.393.227c16.121-6.329,26.136-15.831,28.061-39.27l.546-6.668Z" transform="translate(-866.285 -214.909)" fill="#efcc5d"/>
        <path id="Trazado_611269" data-name="Trazado 611269" d="M917.523,243.959c-.17-.1-.338-.2-.507-.3l-.543,6.606c-1.916,23.335-11.852,32.855-27.845,39.184.094.147.186.293.281.44l.393.227c16.121-6.329,26.136-15.831,28.061-39.27l.546-6.668Z" transform="translate(-860.302 -207.994)" fill="url(#radial-gradient-5)" style="mix-blend-mode: color-dodge;isolation: isolate"/>
        <path id="Trazado_611270" data-name="Trazado 611270" d="M895.567,292.063c-14.491-22.675-24.468-43.149-26.356-68.32l-.12-1.592a44.934,44.934,0,0,0,19.167,4.824,31.4,31.4,0,0,0,4.721-.351c8,10.675,17.233,19.281,26.87,25.037l-.384,4.688C917.7,277.9,909.042,286.32,895.567,292.063Z" transform="translate(-865.534 -213.753)" fill="#e6933e"/>
        <path id="Trazado_611271" data-name="Trazado 611271" d="M871.242,223.366l-.019-.247q-1.063-.458-2.132-.967l.12,1.592c1.888,25.172,11.865,45.645,26.356,68.32.6-.256,1.19-.52,1.772-.789C882.99,268.763,873.119,248.385,871.242,223.366Z" transform="translate(-865.534 -213.753)" opacity="0.2" fill="url(#radial-gradient-6)" style="mix-blend-mode: multiply;isolation: isolate"/>
        <path id="Trazado_611272" data-name="Trazado 611272" d="M892.844,265.13l-5.465-3.155V236.923l5.465,3.155Z" transform="translate(-860.637 -209.798)" fill="url(#linear-gradient-66)"/>
        <path id="Trazado_611273" data-name="Trazado 611273" d="M889.04,260.9V237.882l-1.661-.959v25.052l5.465,3.155V263.1Z" transform="translate(-860.637 -209.798)" fill="#eca30a" opacity="0.7" style="mix-blend-mode: multiply;isolation: isolate"/>
      </g>
      <g id="Grupo_930077" data-name="Grupo 930077" transform="translate(800.804 275.713)">
        <path id="Trazado_611274" data-name="Trazado 611274" d="M906.869,239.636l-.081-.052-2.963-1.9-71.131,41.067v28.36l2.963-1.711v3.378L871.67,282.91l35.117-19.37V239.751Z" transform="translate(-781.631 -237.681)" fill="url(#linear-gradient-67)" style="mix-blend-mode: screen;isolation: isolate"/>
        <path id="Trazado_611275" data-name="Trazado 611275" d="M895.457,242.5l-71.131,41.067v28.36l48.582-28.049L874.3,278.9l24.2-34.451Z" transform="translate(-783.871 -236.391)" fill="url(#linear-gradient-68)"/>
        <path id="Trazado_611276" data-name="Trazado 611276" d="M897.794,243.813,826.664,284.88v28.36l48.581-28.048,1.393-4.972,21.156-12.214Z" transform="translate(-783.246 -236.039)" fill="url(#linear-gradient-69)"/>
        <path id="Trazado_611277" data-name="Trazado 611277" d="M887.977,266.644,832.159,298.9V284.911l55.818-32.252Z" transform="translate(-781.774 -233.67)" fill="#fff"/>
        <path id="Trazado_611278" data-name="Trazado 611278" d="M887.013,253.216v13.025l-54.854,31.695v.959l55.818-32.252V252.659Z" transform="translate(-781.774 -233.67)" fill="#8b8c9e"/>
        <path id="Trazado_611279" data-name="Trazado 611279" d="M835.734,265.185l-4.7-2.428c-1.122-.739-2.719-.691-4.5.337L806.19,274.843a13.531,13.531,0,0,0-6.141,10.592v41.442c0,2.2.876,3.654,2.25,4.153l4.773,2.543.076-2.391c.1-.052.2-.1.3-.156L827.8,319.278a13.533,13.533,0,0,0,6.141-10.592V267.244c0-.219-.011-.427-.028-.631Zm-15.179,40.668A12.24,12.24,0,0,1,815,315.434l-1.173.677c-3.068,1.771-5.555.354-5.555-3.167v-5.538l3.943-23.132a9.16,9.16,0,0,1,1.613-1.236l1.173-.677c3.068-1.771,5.555-.354,5.555,3.168Z" transform="translate(-790.372 -231.1)" fill="url(#linear-gradient-70)"/>
        <path id="Trazado_611280" data-name="Trazado 611280" d="M830.307,265.066l-20.35,11.75a13.531,13.531,0,0,0-6.141,10.592V328.85c0,3.892,2.75,5.46,6.141,3.5l20.35-11.748a13.533,13.533,0,0,0,6.141-10.592V268.569C836.448,264.676,833.7,263.109,830.307,265.066Zm-7.241,42.112a12.24,12.24,0,0,1-5.555,9.582l-1.173.677c-3.068,1.771-5.555.354-5.555-3.167V293.946a12.241,12.241,0,0,1,5.555-9.582l1.173-.677c3.068-1.771,5.555-.354,5.555,3.167Z" transform="translate(-789.364 -230.573)" fill="url(#linear-gradient-71)"/>
        <g id="Grupo_930074" data-name="Grupo 930074" transform="translate(14.175 33.377)" style="mix-blend-mode: color-dodge;isolation: isolate">
          <path id="Trazado_611281" data-name="Trazado 611281" d="M815.01,313.48l1.173-.677a12.241,12.241,0,0,0,5.555-9.582V282.9c0-2.3-1.069-3.7-2.664-3.9,1.068.545,1.738,1.8,1.738,3.619v20.324a12.239,12.239,0,0,1-5.557,9.582l-1.172.677a4.7,4.7,0,0,1-2.892.73A3.99,3.99,0,0,0,815.01,313.48Z" transform="translate(-801.563 -259.994)" fill="url(#radial-gradient-7)"/>
          <path id="Trazado_611282" data-name="Trazado 611282" d="M804.523,328.908V287.465a13.529,13.529,0,0,1,6.142-10.592l20.349-11.75a5.158,5.158,0,0,1,3.243-.8,4.446,4.446,0,0,0-4.17.524L809.738,276.6a13.531,13.531,0,0,0-6.141,10.592V328.63c0,2.524,1.16,4.062,2.9,4.3C805.286,332.344,804.523,330.951,804.523,328.908Z" transform="translate(-803.597 -264.008)" fill="url(#radial-gradient-8)"/>
        </g>
        <g id="Grupo_930075" data-name="Grupo 930075" transform="translate(0 23.803)" opacity="0.2">
          <path id="Trazado_611283" data-name="Trazado 611283" d="M817.02,353.069a17.081,17.081,0,0,0,8.528-2.055l43.336-27.621,43.336-27.621a9.024,9.024,0,0,0,4.892-7.8c0-3.461.482-27.327-3.262-29.488l-4.715-1.928c-2.941-1.7-9.248,18.007-12.986,18.007a17.083,17.083,0,0,0-8.528,2.056l-45.157,26.07-45.157,26.072a9.023,9.023,0,0,0-4.892,7.794c0,3.461,2.148,6.686,5.891,8.849C798.307,345.409,813.282,353.069,817.02,353.069Z" transform="translate(-792.416 -256.456)" opacity="0"/>
          <path id="Trazado_611284" data-name="Trazado 611284" d="M912.024,260.317c-.1.016-4.471-1.718-4.559-1.7-3.213-1.411-9.335,16.771-12.929,16.828a17.807,17.807,0,0,0-8.17,2.11l-43.507,25.118L799.342,327.8a9.521,9.521,0,0,0-4.8,6.435c-.043.3-.081.606-.1.915-.161,3.281,1.817,6.42,5.464,8.526,0,0,1.741.927,3.92,1.975,4.517,2.195,11.593,5.287,14.077,5.2.653-.011,1.289-.061,1.912-.127a16.6,16.6,0,0,0,6.231-1.982l41.618-26.586,3.56-2.274,38.057-24.312c2.827-1.633,4.866-4.492,4.866-7.363,0-.808.23-3.008.274-5.611.085-5.1.48-12.472-.516-17.308C913.409,262.889,912.888,260.816,912.024,260.317Z" transform="translate(-791.876 -255.898)" opacity="0.091"/>
          <path id="Trazado_611285" data-name="Trazado 611285" d="M910.2,262.146c-.19.033-4.229-1.506-4.4-1.464-3.485-1.126-9.417,15.535-12.872,15.648a18.8,18.8,0,0,0-7.811,2.163L843.256,302.66l-41.877,24.179c-2.279,1.316-4.385,3.806-4.772,6.05-.048.284-.105.567-.136.856-.323,3.1,1.487,6.154,5.037,8.2,0,0,1.785.974,3.742,1.926,4.326,2.1,11.049,4.935,13.54,4.772.624-.024,1.231-.091,1.823-.161a17.332,17.332,0,0,0,5.933-2l39.9-25.552,3.414-2.187,36.486-23.366c2.544-1.468,4.836-4.347,4.836-6.931,0-.726.432-2.9.531-5.241.2-4.747,1.2-11.708.137-16.262C911.351,264.8,910.981,262.595,910.2,262.146Z" transform="translate(-791.34 -255.339)" opacity="0.182"/>
          <path id="Trazado_611286" data-name="Trazado 611286" d="M908.385,263.975c-.285.049-3.987-1.3-4.25-1.232-3.756-.839-9.5,14.3-12.815,14.469a20.079,20.079,0,0,0-7.451,2.216l-40.211,23.217-40.238,23.231c-2.027,1.17-4.336,3.683-4.739,5.666-.055.266-.132.527-.176.8-.487,2.926,1.156,5.886,4.61,7.88,0,0,1.827,1.027,3.565,1.878,4.13,2.02,10.5,4.584,13,4.338.6-.035,1.173-.122,1.735-.2a18.311,18.311,0,0,0,5.635-2.016l38.181-24.517,3.267-2.1,34.916-22.419c2.262-1.306,4.809-4.2,4.809-6.5,0-.647.64-2.792.79-4.87.318-4.4,1.919-10.935.789-15.217C909.3,266.7,909.077,264.375,908.385,263.975Z" transform="translate(-790.808 -254.782)" opacity="0.273"/>
          <path id="Trazado_611287" data-name="Trazado 611287" d="M906.571,265.805c-.38.066-3.745-1.085-4.095-1-4.028-.554-9.573,13.062-12.756,13.289a21.794,21.794,0,0,0-7.093,2.269l-38.563,22.265-38.6,22.285c-1.772,1.023-4.293,3.559-4.706,5.28-.061.25-.156.489-.216.738-.654,2.751.827,5.62,4.182,7.557,0,0,1.867,1.081,3.386,1.829,3.935,1.937,9.962,4.233,12.465,3.906.568-.048,1.114-.152,1.649-.231a19.7,19.7,0,0,0,5.336-2.034l36.464-23.484,3.121-2.009,33.344-21.475c1.979-1.142,4.781-4.058,4.781-6.068,0-.565.854-2.686,1.048-4.5.435-4.075,2.642-10.148,1.439-14.172C907.267,268.607,907.176,266.155,906.571,265.805Z" transform="translate(-790.28 -254.225)" opacity="0.364"/>
          <path id="Trazado_611288" data-name="Trazado 611288" d="M904.762,267.638c-.475.082-3.5-.873-3.94-.767-4.3-.267-9.645,11.826-12.7,12.108a24.275,24.275,0,0,0-6.734,2.324l-36.914,21.312-36.959,21.338c-1.52.877-4.263,3.434-4.674,4.9-.066.235-.181.45-.255.68-.825,2.576.5,5.353,3.755,7.234,0,0,1.909,1.136,3.209,1.781,3.74,1.853,9.418,3.882,11.927,3.472.54-.06,1.055-.183,1.562-.265a21.626,21.626,0,0,0,5.038-2.052l34.746-22.448,2.974-1.922L897.57,294.8c1.7-.979,4.752-3.914,4.752-5.635,0-.486,1.079-2.582,1.307-4.127.554-3.763,3.37-9.349,2.091-13.128C905.248,270.514,905.281,267.937,904.762,267.638Z" transform="translate(-789.757 -253.67)" opacity="0.455"/>
          <path id="Trazado_611289" data-name="Trazado 611289" d="M902.958,269.473c-.57.1-3.261-.663-3.786-.535-4.572.018-9.713,10.588-12.642,10.929a27.773,27.773,0,0,0-6.374,2.377L844.891,302.6,809.57,323c-1.266.73-4.493,3.254-4.643,4.511a5.729,5.729,0,0,0-.294.62c-1,2.4.166,5.086,3.328,6.912,0,0,1.95,1.192,3.031,1.732,3.543,1.771,8.874,3.531,11.39,3.04.511-.071,1-.212,1.473-.3a24.488,24.488,0,0,0,4.74-2.07l33.028-21.415,2.828-1.833,30.2-19.582c1.414-.816,4.724-3.769,4.724-5.206,0-.4,1.572-2.453,1.566-3.755,1.348-3.27,4.738-8.845,2.742-12.082C903.465,272.361,903.39,269.723,902.958,269.473Z" transform="translate(-789.238 -253.118)" opacity="0.545"/>
          <path id="Trazado_611290" data-name="Trazado 611290" d="M901.158,271.309c-.666.114-3.019-.453-3.631-.3-4.844.3-9.775,9.351-12.585,9.75a33.4,33.4,0,0,0-6.016,2.429L845.309,302.6l-33.68,19.445c-1.013.586-4.49,3.121-4.61,4.127a5.24,5.24,0,0,0-.335.56c-1.18,2.227-.163,4.82,2.9,6.59,0,0,1.989,1.247,2.854,1.682,3.348,1.689,8.331,3.18,10.852,2.608.483-.084.934-.242,1.386-.333a29.153,29.153,0,0,0,4.442-2.088l31.309-20.381,2.683-1.746,28.63-18.636c1.131-.653,4.695-3.625,4.695-4.773,0-.323,1.829-2.343,1.823-3.384,1.578-2.9,5.568-8.115,3.4-11.037C901.478,274.263,901.5,271.51,901.158,271.309Z" transform="translate(-788.723 -252.567)" opacity="0.636"/>
          <path id="Trazado_611291" data-name="Trazado 611291" d="M899.362,273.148c-.761.131-2.778-.241-3.476-.071-5.115.591-9.832,8.112-12.528,8.57a43.078,43.078,0,0,0-5.656,2.484l-31.969,18.457-32.04,18.5c-.761.439-4.489,2.988-4.578,3.741a4.866,4.866,0,0,0-.374.5c-1.367,2.047-.494,4.553,2.474,6.265,0,0,2.028,1.306,2.676,1.635,3.153,1.6,7.787,2.828,10.313,2.174.456-.1.875-.273,1.3-.369a36.636,36.636,0,0,0,4.143-2.106l29.592-19.346,2.536-1.657,27.058-17.69c.848-.489,4.667-3.48,4.667-4.341,0-.242,2.087-2.231,2.082-3.012,1.808-2.538,6.4-7.385,4.045-9.993C899.5,276.166,899.622,273.3,899.362,273.148Z" transform="translate(-788.213 -252.018)" opacity="0.727"/>
          <path id="Trazado_611292" data-name="Trazado 611292" d="M897.571,275.006c-.856.147-2.536-.03-3.322.161-5.387.877-10.033,6.377-12.47,7.391-.591,0-4.875,2.292-5.3,2.537L846.16,302.6l-30.4,17.552c-.506.293-4.485,2.855-4.545,3.357a4.95,4.95,0,0,0-.413.442c-1.557,1.864-.824,4.286,2.046,5.943,0,0,2.068,1.365,2.5,1.586,2.958,1.523,7.244,2.477,9.777,1.742.427-.108.813-.3,1.212-.4.435-.11,3.509-1.93,3.844-2.124l27.874-18.312,2.39-1.569,25.486-16.745c.565-.326,4.639-3.334,4.639-3.909,0-.162,2.343-2.121,2.34-2.642,2.037-2.172,7.225-6.653,4.7-8.947C897.516,278.09,897.743,275.106,897.571,275.006Z" transform="translate(-787.707 -251.489)" opacity="0.818"/>
          <path id="Trazado_611293" data-name="Trazado 611293" d="M895.783,276.889c-.951.164-2.293.18-3.167.393-5.659,1.163-10.12,5.084-12.413,6.212-.3,0-4.727,2.468-4.939,2.59l-28.672,16.553-28.762,16.607a46.4,46.4,0,0,0-4.513,2.972,4.928,4.928,0,0,0-.451.383c-1.752,1.672-1.156,4.02,1.618,5.621,0,0,2.106,1.426,2.32,1.538,2.763,1.439,6.7,2.126,9.24,1.308a7.084,7.084,0,0,0,1.123-.437c.224-.022,3.38-2.045,3.547-2.141l26.155-17.277,2.244-1.482,23.915-15.8c.283-.164,4.611-3.191,4.611-3.478a29.1,29.1,0,0,0,2.6-2.271c2.267-1.807,8.053-5.923,5.349-7.9C895.541,280.038,895.869,276.94,895.783,276.889Z" transform="translate(-787.205 -250.985)" opacity="0.909"/>
          <path id="Trazado_611294" data-name="Trazado 611294" d="M828,328.437l29.782-19.8,29.784-19.8c2.5-1.441,8.882-5.194,6-6.857l.428-3.215a45.935,45.935,0,0,0-15.368,5.657l-31.6,18.247-31.6,18.246c-2.495,1.441-2.182,3.958.7,5.623l2.142,1.488C821.148,329.7,825.508,329.877,828,328.437Z" transform="translate(-786.706 -250.481)"/>
        </g>
        <g id="Grupo_930076" data-name="Grupo 930076" transform="translate(54.183 28.983)">
          <path id="Trazado_611295" data-name="Trazado 611295" d="M842.1,279.026a7.647,7.647,0,0,1-3.471,5.988c-1.917,1.107-3.471.221-3.471-1.979a7.648,7.648,0,0,1,3.471-5.988C840.544,275.94,842.1,276.826,842.1,279.026Z" transform="translate(-835.155 -256.25)" fill="url(#linear-gradient-72)"/>
          <path id="Trazado_611296" data-name="Trazado 611296" d="M849.161,275.019a7.65,7.65,0,0,1-3.471,5.988c-1.918,1.107-3.472.221-3.472-1.979a7.648,7.648,0,0,1,3.472-5.988C847.606,271.933,849.161,272.819,849.161,275.019Z" transform="translate(-833.264 -257.323)" fill="url(#linear-gradient-73)"/>
          <path id="Trazado_611297" data-name="Trazado 611297" d="M856.222,271.012A7.65,7.65,0,0,1,852.751,277c-1.917,1.107-3.471.221-3.471-1.979a7.65,7.65,0,0,1,3.471-5.988C854.668,267.926,856.222,268.812,856.222,271.012Z" transform="translate(-831.373 -258.396)" fill="url(#linear-gradient-74)"/>
          <path id="Trazado_611298" data-name="Trazado 611298" d="M863.284,267a7.65,7.65,0,0,1-3.471,5.988c-1.917,1.107-3.471.221-3.471-1.979a7.65,7.65,0,0,1,3.471-5.988C861.73,263.919,863.284,264.805,863.284,267Z" transform="translate(-829.482 -259.469)" fill="url(#linear-gradient-75)"/>
          <path id="Trazado_611299" data-name="Trazado 611299" d="M870.346,263a7.645,7.645,0,0,1-3.471,5.988c-1.917,1.107-3.471.221-3.471-1.979a7.65,7.65,0,0,1,3.471-5.988C868.793,259.912,870.346,260.8,870.346,263Z" transform="translate(-827.591 -260.542)" fill="url(#linear-gradient-76)"/>
        </g>
      </g>
      <path id="Trazado_611300" data-name="Trazado 611300" d="M851.063,131.114l7.618,4.4v-2.434l-7.618-4.4Zm.436,11.491,10.773,6.22V146.39L851.5,140.17Zm.979-5.055,9.033,5.214v-2.434l-9.033-5.216Zm-3.156-9.877L840.18,122.4v2.435l9.142,5.278Zm16.868,4.12-7.4-4.272v2.434l7.4,4.272ZM844.1,138.332l5.659,3.267v-2.434L844.1,135.9Zm6.747,7.08-2.612-1.507v2.434l2.612,1.509Zm-2.828-21.676,9.033,5.214v-2.434l-9.033-5.216Zm-9.577-2.344-5.659-3.268v2.435l5.659,3.267Zm3.482,30.107-11.753-6.785v2.434l11.753,6.786Zm3.59-34.827,10.775,6.22v-2.435l-10.775-6.22Zm-10.774,21.877,11.754,6.785V142.9l-11.754-6.785Zm11.645-6.951-11.754-6.786v2.435l11.754,6.786Zm-2.721-10.375,2.612,1.509V120.3l-2.612-1.507Zm-5.55-8.824,5.659,3.268v-2.435l-5.659-3.267Zm-5.985,30.262,4.244,2.451v-2.435l-4.244-2.451Zm10.23-7.768-4.244-2.451v2.435l4.244,2.449Zm26.226,17.576,1.975,1.141v-2.435l-1.975-1.141Zm-36.456-45.96v2.435l4.244,2.451v-2.435Zm18.61,27.6-2.613-1.507v2.435l2.613,1.507Zm12.514,9.66,7.307,4.219v-2.434l-7.307-4.219Zm-4.461,19.9,7.4,4.272V165.51l-7.4-4.272Zm-6.312,11.34,9.033,5.216v-2.435l-9.033-5.216Zm-22.309-61.582,11.753,6.786v-2.435L830.169,111ZM864.013,147.4v2.435l2.83,1.633v-2.434Zm-20.241-.447-5.659-3.267v2.435l5.659,3.267Zm2.5,7.064-2.612-1.507v2.435l2.612,1.507Zm10.013.162-10.775-6.221v2.435l10.775,6.22Zm4.134-17.656,2.108,1.272v-2.435l-2.108-1.272Zm2.939,18.555,7.2,4.156v-2.434l-7.2-4.157Zm.912-16.278,6.287,3.576v-2.435l-6.287-3.576Zm3.659-3.561,2.628,1.518v-2.435l-2.628-1.516ZM832.889,161.27l-6.6-3.81V159.9l6.6,3.808Zm5.55-3.726v-2.435l-5.659-3.267v2.434Zm-7.4-40.424-4.748-2.742v2.435l4.748,2.741Zm0,33.716-4.748-2.741v2.435l4.748,2.74Zm-4.748,14.679,10.08,5.819V168.9l-10.08-5.819Zm4.095-26.3-4.095-2.363v2.434l4.095,2.364ZM833,135.108l-6.707-3.872v2.435L833,137.543Zm-.109-11.3-6.6-3.81v2.435l6.6,3.808Zm3.483,7.629-10.08-5.819v2.434l10.08,5.82Zm-7.944,12.272-2.136-1.234v2.435l2.136,1.232Zm34.823,37.526,7.307,4.219v-2.435l-7.307-4.219ZM848.124,172.5l2.613,1.507v-2.434l-2.613-1.509Zm10.557-5.706-7.618-4.4v2.434l7.618,4.4Zm-20.568,5.545,4.244,2.451v-2.435l-4.244-2.451Zm19.915-14.726,5.985,3.456v-2.435l-5.985-3.456Zm7.726,4.461,4.8,2.774v-2.435l-4.8-2.774Zm-4.134-10.443-9.033-5.214v2.435l9.033,5.214Zm6.311,17.319,2.628,1.516v-2.434l-2.628-1.518Zm-10.881-8.718-9.033-5.216v2.435l9.033,5.216Zm-22.419,4.476,11.754,6.786V169.06l-11.754-6.785Zm14.692-3.318-9.142-5.278v2.435l9.142,5.276ZM830.387,105.5l-4.095-2.364v2.435l4.095,2.364ZM833,99.518l-6.707-3.872v2.435L833,101.953Zm-4.57,10.473-2.136-1.232v2.435l2.136,1.232Zm18.065-2.681-11.754-6.786v2.435l11.754,6.786Zm19.261,18.613v2.435l4.8,2.774V128.7Zm-14.909-16.1-2.612-1.507v2.435l2.612,1.507Zm7.183,14.075,5.985,3.456v-2.435l-5.985-3.456Zm3.592-7.854-9.033-5.216v2.435l9.033,5.214Z" transform="translate(17.459 0)" fill="#fff" opacity="0.7" style="mix-blend-mode: color-dodge;isolation: isolate"/>
      <path id="Trazado_611301" data-name="Trazado 611301" d="M811.984,221.853l10.774,6.221v-2.435l-10.774-6.22Zm.979-5.053L822,222.014v-2.435l-9.033-5.214Zm-8.379.781,5.658,3.267v-2.434l-5.658-3.268Zm6.747,7.081-2.612-1.509v2.435l2.612,1.507Zm-8.924,6.087-11.753-6.785V226.4l11.753,6.786ZM795.225,217.8l11.752,6.786v-2.435l-11.752-6.785Zm11.643-6.95-11.752-6.786v2.435l11.752,6.785Zm-14.256,11.063,4.245,2.451v-2.435l-4.245-2.451Zm10.23-7.769L798.6,211.69v2.434l4.244,2.451Zm26.228,17.578,1.975,1.141v-2.435l-1.975-1.141Zm-17.848-18.359-2.612-1.507v2.434l2.612,1.509Zm12.514,9.66,7.309,4.219V224.8l-7.309-4.219Zm-4.461,19.9,7.4,4.274v-2.435l-7.4-4.272Zm5.223-16.277v2.435l2.83,1.633v-2.435Zm-20.241-.448-5.659-3.267v2.435l5.659,3.267Zm2.5,7.064-2.612-1.507v2.434l2.612,1.509Zm10.013.161L806,227.2v2.434l10.773,6.221Zm7.073.9,7.2,4.156v-2.435l-7.2-4.156Zm-24.921,2.47v-2.434l-5.659-3.268v2.435Zm-7.4-6.708-4.748-2.74v2.434l4.748,2.741Zm-4.748-43.367,10.08,5.819V190.1l-10.08-5.82Zm4.095,31.751-4.095-2.364v2.435l4.095,2.364Zm2.612-4.111-6.707-3.872v2.434l6.707,3.873Zm-.109-11.3-6.6-3.808v2.435l6.6,3.808Zm3.483,7.631-10.08-5.82V207.3l10.08,5.819Zm-7.944,12.271-2.136-1.232v2.435l2.136,1.232Zm30.253,23.087-7.618-4.4v2.435l7.618,4.4Zm-20.568-52.5,4.244,2.451v-2.435l-4.244-2.449Zm19.915,43.321,5.985,3.456v-2.435l-5.985-3.456Zm7.727,4.461,4.8,2.774v-2.435l-4.8-2.774ZM822.1,230.88l-9.033-5.214V228.1l9.033,5.216Zm6.312,17.318,2.628,1.518V247.28l-2.628-1.516Zm-10.883-8.717-9.033-5.216V236.7l9.033,5.214Zm-7.727,1.157-9.142-5.278V237.8l9.142,5.278Zm-16.324-47.5-6.707-3.872V191.7l6.707,3.873Zm13.494,7.79-11.752-6.785v2.434l11.752,6.786Zm4.354,2.514-2.612-1.509v2.435l2.612,1.507Zm10.774,6.22-9.033-5.216v2.435L822.1,212.1Z" transform="translate(6.878 23.734)" fill="#fff" opacity="0.7" style="mix-blend-mode: color-dodge;isolation: isolate"/>
      <g id="Grupo_930078" data-name="Grupo 930078" transform="translate(823.358 199.218)" opacity="0.7" style="mix-blend-mode: color-dodge;isolation: isolate">
        <path id="Trazado_611302" data-name="Trazado 611302" d="M825.907,196.342a.729.729,0,0,1-.25-.255.688.688,0,0,1-.106-.358v-1.59a.433.433,0,0,1,.106-.336.763.763,0,0,1,.339-.142l4.3-.82-4.3-5.785a3.924,3.924,0,0,1-.339-.531,1.082,1.082,0,0,1-.106-.479v-1.571c0-.136.033-.222.1-.26a.265.265,0,0,1,.259.037,1.22,1.22,0,0,1,.355.389l6.023,8.187a3.575,3.575,0,0,1,.4.658,1.4,1.4,0,0,1,.115.557v.489a.594.594,0,0,1-.124.417.7.7,0,0,1-.391.183l-6.023,1.253A.414.414,0,0,1,825.907,196.342Z" transform="translate(-806.097 -175.507)" fill="#fff"/>
        <path id="Trazado_611303" data-name="Trazado 611303" d="M825.325,199.433l-1.155-.667a1.039,1.039,0,0,1-.364-.342,1.516,1.516,0,0,1-.186-.4l-6.076-20.165a.852.852,0,0,1-.036-.245.255.255,0,0,1,.107-.243.259.259,0,0,1,.266.03l1.155.667a1.072,1.072,0,0,1,.355.337,1.87,1.87,0,0,1,.213.42l6.041,20.144a.867.867,0,0,1,.035.245.257.257,0,0,1-.107.245A.242.242,0,0,1,825.325,199.433Z" transform="translate(-808.251 -177.342)" fill="#fff"/>
        <path id="Trazado_611304" data-name="Trazado 611304" d="M817.1,190.459a1.136,1.136,0,0,1-.355-.368l-6.023-8.206a3.476,3.476,0,0,1-.39-.634,1.34,1.34,0,0,1-.125-.562V180.2a.644.644,0,0,1,.117-.422.688.688,0,0,1,.4-.2l6.023-1.232a.4.4,0,0,1,.355.022.759.759,0,0,1,.355.633v1.571a.458.458,0,0,1-.106.355.757.757,0,0,1-.337.142l-4.3.82,4.3,5.785a3.892,3.892,0,0,1,.337.532,1.014,1.014,0,0,1,.106.459v1.59c0,.122-.036.2-.106.233A.26.26,0,0,1,817.1,190.459Z" transform="translate(-810.206 -177.081)" fill="#fff"/>
      </g>
      <path id="Unin_1" data-name="Unin 1" d="M18.992,25.2,2.326,15.579A5.569,5.569,0,0,1,0,11.136v-9.1C0,.762.578,0,1.4,0a1.864,1.864,0,0,1,.924.278L18.992,9.9a5.565,5.565,0,0,1,2.326,4.443v.72h0v8.377c0,1.276-.576,2.038-1.4,2.038A1.868,1.868,0,0,1,18.992,25.2ZM.895,10.789,20.424,22.066v-7.38L.895,3.412Zm5.34.2v-1.3l8.85,5.109v1.3Z" transform="translate(780.822 263.491)" fill="#fff" opacity="0.5" style="mix-blend-mode: color-dodge;isolation: isolate"/>
      <path id="Trazado_611307" data-name="Trazado 611307" d="M774.488,171.641a21.527,21.527,0,0,0-4.916-5.747v-6.746a7.015,7.015,0,0,1,1.8,3.8l3.8,1.628a13.364,13.364,0,0,0-5.609-9.243v-1.709l-2.181-1.259v1.709q-2.586-1.2-4.142-.175t-1.557,3.855a12.306,12.306,0,0,0,1.376,5.548,18.859,18.859,0,0,0,4.323,5.421v7.23a9.906,9.906,0,0,1-1.473-2.3,10.52,10.52,0,0,1-.9-2.9l-3.925-1.784a16.858,16.858,0,0,0,2.075,6.461,14.8,14.8,0,0,0,4.226,4.665v3.142l2.181,1.258v-3.226q2.932,1.209,4.579.022t1.646-4.313A11.5,11.5,0,0,0,774.488,171.641Zm-7.1-7.834a7.917,7.917,0,0,1-1.458-2.11,4.828,4.828,0,0,1-.482-1.978,2.061,2.061,0,0,1,.526-1.525,1.491,1.491,0,0,1,1.414-.358Zm4.015,13.507a1.818,1.818,0,0,1-1.834.141v-6.729a8.593,8.593,0,0,1,1.947,2.41,5.153,5.153,0,0,1,.594,2.335A2.192,2.192,0,0,1,771.406,177.314Z" transform="translate(0 15.188)" fill="#fff" opacity="0.5" style="mix-blend-mode: color-dodge;isolation: isolate"/>
      <g id="Grupo_930079" data-name="Grupo 930079" transform="translate(798.435 154.222)" opacity="0.7" style="mix-blend-mode: color-dodge;isolation: isolate">
        <path id="Trazado_611308" data-name="Trazado 611308" d="M797.671,145.3l-2.263,2.111v.055l3.6,1.53v1.86l-3.6-2.57v.055l2.286,4.6-1.5.118-1.43-4.653-.047-.027-1.549,2.96-1.358-1.769,2.264-2.028v-.055l-3.527-1.516v-1.859l3.5,2.541V146.6l-2.24-4.629,1.453-.117,1.477,4.651.048.028,1.453-2.988Z" transform="translate(-790.547 -141.85)" fill="#fff"/>
        <path id="Trazado_611309" data-name="Trazado 611309" d="M805.469,149.8l-2.263,2.111v.055l3.6,1.53v1.859l-3.6-2.568v.055l2.287,4.6-1.5.119-1.43-4.654-.047-.027-1.549,2.96-1.358-1.769,2.264-2.028v-.055l-3.527-1.516v-1.859l3.5,2.541V151.1l-2.24-4.627,1.453-.118L802.538,151l.048.028,1.454-2.987Z" transform="translate(-788.459 -140.645)" fill="#fff"/>
        <path id="Trazado_611310" data-name="Trazado 611310" d="M813.268,154.3,811,156.412v.055l3.6,1.53v1.859l-3.6-2.569v.055l2.287,4.6-1.5.118-1.43-4.653-.047-.028-1.549,2.96-1.358-1.767,2.263-2.028v-.055l-3.526-1.516v-1.859l3.5,2.541V155.6l-2.239-4.629,1.454-.117,1.476,4.651.048.028,1.453-2.988Z" transform="translate(-786.371 -139.439)" fill="#fff"/>
        <path id="Trazado_611311" data-name="Trazado 611311" d="M821.066,158.8l-2.263,2.111v.055l3.6,1.53v1.86l-3.6-2.57v.055l2.286,4.6-1.5.119-1.43-4.654-.047-.027-1.549,2.96-1.358-1.769,2.264-2.028v-.055l-3.527-1.516v-1.859l3.5,2.541V160.1l-2.24-4.627,1.454-.118,1.476,4.651.048.028,1.453-2.988Z" transform="translate(-784.282 -138.233)" fill="#fff"/>
        <path id="Trazado_611312" data-name="Trazado 611312" d="M828.864,163.306l-2.263,2.111v.055l3.6,1.53v1.859l-3.6-2.568v.055l2.287,4.6-1.5.119-1.429-4.653-.048-.028-1.549,2.96L823,167.577l2.264-2.028v-.056l-3.527-1.516v-1.859l3.5,2.542V164.6L823,159.977l1.454-.118,1.476,4.653.049.028,1.453-2.988Z" transform="translate(-782.195 -137.028)" fill="#fff"/>
      </g>
      <g id="Grupo_930080" data-name="Grupo 930080" transform="translate(790.791 110.299)" opacity="0.5" style="mix-blend-mode: color-dodge;isolation: isolate">
        <path id="Trazado_611313" data-name="Trazado 611313" d="M785.121,107.246l9.743,15.225,9.741-3.974.005.008a3.72,3.72,0,0,0-1.152-1.121l-17.188-9.924a1.471,1.471,0,0,0-1.159-.209Z" transform="translate(-784.359 -107.204)" fill="#fff"/>
        <path id="Trazado_611314" data-name="Trazado 611314" d="M804.795,118.53l-9.772,5.572-2.766-4.772-6.977,2.845-.03-.046,6.486-3.7-6.486-11.187a1.226,1.226,0,0,0-.732,1.291v11.642a4.211,4.211,0,0,0,1.911,3.295l17.188,9.923c1.055.61,1.909.122,1.909-1.088V120.665A4.008,4.008,0,0,0,804.795,118.53Zm-.03,14.9-6.975-10.9.521-.3,6.485,11.186Z" transform="translate(-784.518 -107.193)" fill="#fff"/>
      </g>
    </g>
  </g>
</svg>
