<svg xmlns="http://www.w3.org/2000/svg" xmlns:xlink="http://www.w3.org/1999/xlink" width="610" height="335.201" viewBox="0 0 610 335.201">
  <defs>
    <clipPath id="clip-path">
      <rect id="Rectángulo_305296" data-name="Rectángulo 305296" width="290.444" height="146.766" fill="#b8ebd6"/>
    </clipPath>
    <clipPath id="clip-path-2">
      <rect id="Rectángulo_305297" data-name="Rectángulo 305297" width="219.063" height="110.697" fill="#fff"/>
    </clipPath>
  </defs>
  <g id="Grupo_922886" data-name="Grupo 922886" transform="translate(-248.5 -1738.114)">
    <g id="Grupo_922881" data-name="Grupo 922881" transform="translate(858.5 2003.579) rotate(180)" clip-path="url(#clip-path)">
      <path id="Trazado_607560" data-name="Trazado 607560" d="M145.222,146.766A145.221,145.221,0,0,1,0,1.545C0,1.029.014.516.02,0h290.4c.006.516.02,1.029.02,1.545A145.221,145.221,0,0,1,145.222,146.766" transform="translate(0 0)" fill="#b8ebd6"/>
    </g>
    <g id="Grupo_922885" data-name="Grupo 922885" transform="translate(248.5 1892.882)" clip-path="url(#clip-path-2)">
      <path id="Trazado_607561" data-name="Trazado 607561" d="M109.532,110.7A109.531,109.531,0,0,1,0,1.165C0,.776.011.389.015,0H219.048c0,.389.015.776.015,1.165A109.531,109.531,0,0,1,109.532,110.7" transform="translate(0 0)" fill="#fff"/>
    </g>
    <g id="Grupo_922880" data-name="Grupo 922880" transform="translate(302.215 1738.114)">
      <g id="Grupo_922762" data-name="Grupo 922762" transform="translate(268.631 133.824)">
        <g id="Grupo_922758" data-name="Grupo 922758" transform="translate(7.933)">
          <path id="Trazado_607469" data-name="Trazado 607469" d="M614.881-71.416H551.265a4.886,4.886,0,0,1-4.881-4.881v-93.219a4.886,4.886,0,0,1,4.881-4.881h63.616a4.888,4.888,0,0,1,4.883,4.881V-76.3A4.888,4.888,0,0,1,614.881-71.416ZM551.265-173.453a3.941,3.941,0,0,0-3.936,3.936V-76.3a3.941,3.941,0,0,0,3.936,3.936h63.616a3.94,3.94,0,0,0,3.936-3.936v-93.219a3.94,3.94,0,0,0-3.936-3.936Z" transform="translate(-546.384 174.398)" fill="#fff"/>
        </g>
        <g id="Grupo_922759" data-name="Grupo 922759" transform="translate(0 8.038)">
          <rect id="Rectángulo_305281" data-name="Rectángulo 305281" width="72.434" height="102.037" rx="3.405" transform="translate(72.434 102.037) rotate(180)" fill="#f3c035"/>
        </g>
        <g id="Grupo_922760" data-name="Grupo 922760" transform="translate(12.986 28.624)">
          <path id="Trazado_607470" data-name="Trazado 607470" d="M590.833-127.268a20.48,20.48,0,0,0,.5-4.5,20.5,20.5,0,0,0-.552-4.748l-2.9-.031-1.725-4.126,2.064-1.964a20.6,20.6,0,0,0-6.432-6.47l-2.255,2.14-4.1-1.751.127-3.018a20.492,20.492,0,0,0-4.747-.553,20.445,20.445,0,0,0-4.336.461v3.271l-4.093,1.769-2.359-2.438a20.561,20.561,0,0,0-6.466,6.344l2.3,2.193-1.725,4.128-3.293.036a20.556,20.556,0,0,0-.554,4.757,20.506,20.506,0,0,0,.5,4.513l3.347.034,1.725,4.128-2.4,2.287a20.6,20.6,0,0,0,6.412,6.405l2.51-2.592,4.093,1.77v3.517a20.446,20.446,0,0,0,4.336.461,20.572,20.572,0,0,0,4.757-.554l-.137-3.264,4.1-1.748,2.409,2.287a20.567,20.567,0,0,0,6.373-6.528l-2.158-2.052,1.725-4.129Zm-20.023,5.463a9.963,9.963,0,0,1-9.964-9.964,9.963,9.963,0,0,1,9.964-9.962,9.962,9.962,0,0,1,9.962,9.962A9.963,9.963,0,0,1,570.81-121.805Z" transform="translate(-550.287 152.29)" fill="#fff"/>
        </g>
        <g id="Grupo_922761" data-name="Grupo 922761" transform="translate(34.699 65.338)">
          <path id="Trazado_607471" data-name="Trazado 607471" d="M589.71-106a12.112,12.112,0,0,0,1.028-2.464,12.055,12.055,0,0,0,.477-2.777l-1.634-.5-.29-2.619,1.493-.769a12.126,12.126,0,0,0-2.562-4.727l-1.631.835-2.029-1.67.574-1.687a12.018,12.018,0,0,0-2.593-1.1,12.036,12.036,0,0,0-2.529-.46l-.544,1.85-2.608.32-.93-1.77a12.092,12.092,0,0,0-4.712,2.513l.939,1.624L570.5-117.35l-1.868-.526a12.1,12.1,0,0,0-1.1,2.6,12.12,12.12,0,0,0-.467,2.636l1.888.575.29,2.621-1.737.895a12.164,12.164,0,0,0,2.564,4.688l1.85-1.049,2.021,1.681-.585,1.989a12.082,12.082,0,0,0,2.376.981,12.165,12.165,0,0,0,2.784.476l.465-1.87,2.609-.307.983,1.694a12.128,12.128,0,0,0,4.69-2.634l-.881-1.52,1.661-2.048Zm-12.233-.237a5.873,5.873,0,0,1-3.98-7.292,5.872,5.872,0,0,1,7.289-3.979,5.872,5.872,0,0,1,3.98,7.289A5.874,5.874,0,0,1,577.477-106.232Z" transform="translate(-567.057 123.934)" fill="#0f1e52"/>
        </g>
      </g>
      <g id="Grupo_922773" data-name="Grupo 922773" transform="translate(166.618 23.628)">
        <g id="Grupo_922763" data-name="Grupo 922763" transform="translate(0 0)">
          <path id="Trazado_607472" data-name="Trazado 607472" d="M601.275-254.66v87.814c0,2.672-1.85,4.848-4.137,4.848H465.588c-2.271,0-4.121-2.175-4.121-4.848V-254.66c0-2.672,1.85-4.848,4.121-4.848h131.55C599.425-259.508,601.275-257.333,601.275-254.66Z" transform="translate(-461.467 259.508)" fill="#fff4d6"/>
        </g>
        <g id="Grupo_922764" data-name="Grupo 922764" transform="translate(0 0)">
          <path id="Trazado_607473" data-name="Trazado 607473" d="M601.275-254.66v5.139H461.467v-5.139c0-2.672,1.85-4.848,4.121-4.848h131.55C599.425-259.508,601.275-257.333,601.275-254.66Z" transform="translate(-461.467 259.508)" fill="#f3c035"/>
        </g>
        <g id="Grupo_922765" data-name="Grupo 922765" transform="translate(20.567 2.619)">
          <path id="Trazado_607474" data-name="Trazado 607474" d="M482.1-255.11a2.374,2.374,0,0,1-2.375,2.373,2.374,2.374,0,0,1-2.373-2.373,2.374,2.374,0,0,1,2.373-2.375A2.374,2.374,0,0,1,482.1-255.11Z" transform="translate(-477.352 257.485)" fill="#0f1e52"/>
        </g>
        <g id="Grupo_922766" data-name="Grupo 922766" transform="translate(12.96 2.619)">
          <path id="Trazado_607475" data-name="Trazado 607475" d="M476.225-255.11a2.374,2.374,0,0,1-2.373,2.373,2.374,2.374,0,0,1-2.375-2.373,2.374,2.374,0,0,1,2.375-2.375A2.374,2.374,0,0,1,476.225-255.11Z" transform="translate(-471.477 257.485)" fill="#f38e1e"/>
        </g>
        <g id="Grupo_922767" data-name="Grupo 922767" transform="translate(5.354 2.619)">
          <path id="Trazado_607476" data-name="Trazado 607476" d="M470.35-255.11a2.374,2.374,0,0,1-2.373,2.373,2.374,2.374,0,0,1-2.375-2.373,2.374,2.374,0,0,1,2.375-2.375A2.374,2.374,0,0,1,470.35-255.11Z" transform="translate(-465.602 257.485)" fill="#fff4d6"/>
        </g>
        <g id="Grupo_922883" data-name="Grupo 922883" transform="translate(12.989 26.414)">
          <g id="Grupo_922768" data-name="Grupo 922768" transform="translate(0 12.5)">
            <rect id="Rectángulo_305282" data-name="Rectángulo 305282" width="113.83" height="5.918" fill="#f3c035"/>
          </g>
          <g id="Grupo_922769" data-name="Grupo 922769">
            <rect id="Rectángulo_305283" data-name="Rectángulo 305283" width="113.83" height="5.918" fill="#f3c035"/>
          </g>
          <g id="Grupo_922882" data-name="Grupo 922882" transform="translate(0 24.616)">
            <g id="Grupo_922770" data-name="Grupo 922770" transform="translate(0 24.233)">
              <rect id="Rectángulo_305284" data-name="Rectángulo 305284" width="113.83" height="5.918" fill="#f3c035"/>
            </g>
            <rect id="Rectángulo_305285" data-name="Rectángulo 305285" width="113.83" height="5.918" fill="#f3c035"/>
            <g id="Grupo_922772" data-name="Grupo 922772" transform="translate(0 12.117)">
              <rect id="Rectángulo_305286" data-name="Rectángulo 305286" width="113.83" height="5.918" fill="#f3c035"/>
            </g>
          </g>
        </g>
      </g>
      <g id="Grupo_922777" data-name="Grupo 922777" transform="translate(253.157 0)">
        <g id="Grupo_922774" data-name="Grupo 922774">
          <rect id="Rectángulo_305287" data-name="Rectángulo 305287" width="56.863" height="65.447" rx="1.937" fill="#b8ebd6"/>
        </g>
        <g id="Grupo_922775" data-name="Grupo 922775" transform="translate(10.205 11.65)">
          <rect id="Rectángulo_305288" data-name="Rectángulo 305288" width="21.594" height="25.429" fill="#ffb700"/>
        </g>
        <g id="Grupo_922776" data-name="Grupo 922776" transform="translate(22.747 29.886)">
          <rect id="Rectángulo_305289" data-name="Rectángulo 305289" width="23.911" height="23.911" fill="#111f4f"/>
        </g>
      </g>
      <g id="Grupo_922823" data-name="Grupo 922823" transform="translate(277.782 34.61)">
        <g id="Grupo_922778" data-name="Grupo 922778" transform="translate(0 0.026)">
          <path id="Trazado_607477" data-name="Trazado 607477" d="M551.888-251.006l-4.563.3,3.548,2.733S553.535-248.611,551.888-251.006Z" transform="translate(-547.325 251.006)" fill="#fff"/>
        </g>
        <g id="Grupo_922779" data-name="Grupo 922779" transform="translate(128.303 244.541)">
          <path id="Trazado_607478" data-name="Trazado 607478" d="M646.42-57.943l1.472,23.383,20.567,2.286,6.077-12.22-1.328-17.661Z" transform="translate(-646.42 62.155)" fill="#fd8753"/>
        </g>
        <g id="Grupo_922780" data-name="Grupo 922780" transform="translate(168.145 217.94)">
          <path id="Trazado_607479" data-name="Trazado 607479" d="M677.192-60.875l17.483,15.6,16.236-12.83-4.267-12.963L693.285-82.7Z" transform="translate(-677.192 82.7)" fill="#fd8753"/>
        </g>
        <g id="Grupo_922781" data-name="Grupo 922781" transform="translate(133.465 43.9)">
          <path id="Trazado_607480" data-name="Trazado 607480" d="M702.256-180.7s-23.056-10.833-34.922-7.989-16.928-21.728-16.928-21.728,33.92-23.483,61.388,17.467c19.865,29.616-8.022,10.345-8.022,10.345Z" transform="translate(-650.407 217.12)" fill="#fd8753"/>
        </g>
        <g id="Grupo_922782" data-name="Grupo 922782" transform="translate(133.465 117.942)">
          <path id="Trazado_607481" data-name="Trazado 607481" d="M668.98-159.934l45.15,103.015-26.952,27.8S673.588-40.33,660-77.991s-8.753-74.2-8.753-74.2Z" transform="translate(-650.407 159.934)" fill="#4cba97"/>
        </g>
        <g id="Grupo_922783" data-name="Grupo 922783" transform="translate(112.84 0.703)">
          <path id="Trazado_607482" data-name="Trazado 607482" d="M636.714-232.072s18.89-10.085,12.568-16.741-14.805,8.723-14.805,8.723Z" transform="translate(-634.477 250.483)" fill="#0f1e52"/>
        </g>
        <g id="Grupo_922785" data-name="Grupo 922785" transform="translate(100.368 3.973)">
          <g id="Grupo_922784" data-name="Grupo 922784">
            <path id="Trazado_607483" data-name="Trazado 607483" d="M624.844-246.25s11.513-5.457,17.462,3.14c5.776,8.347-1.448,16.471-1.448,16.471L627.22-238.111Z" transform="translate(-624.844 247.958)" fill="#0f1e52"/>
          </g>
        </g>
        <g id="Grupo_922787" data-name="Grupo 922787" transform="translate(99.173 30.212)">
          <g id="Grupo_922786" data-name="Grupo 922786">
            <path id="Trazado_607484" data-name="Trazado 607484" d="M636.91-227.692l.082,9.668s-1.721,2.794-7.372,3.3c-4.211.378-5.7-.562-5.7-.562l.546-4.9.539-4.779L635.2-227.3Z" transform="translate(-623.921 227.692)" fill="#fd8753"/>
          </g>
        </g>
        <g id="Grupo_922789" data-name="Grupo 922789" transform="translate(99.719 30.606)">
          <g id="Grupo_922788" data-name="Grupo 922788">
            <path id="Trazado_607485" data-name="Trazado 607485" d="M635.075-227.388a3.182,3.182,0,0,1-.273.935c-2.122,4.848-8.027,5.939-10.459,6.177l.539-4.779Z" transform="translate(-624.343 227.388)"/>
          </g>
        </g>
        <g id="Grupo_922791" data-name="Grupo 922791" transform="translate(94.484 6.828)">
          <g id="Grupo_922790" data-name="Grupo 922790">
            <path id="Trazado_607486" data-name="Trazado 607486" d="M625.038-242.443s-6.061,12.112-4.472,19.178,7.991,6.3,11.857,5.151a12.577,12.577,0,0,0,5.749-3.384,5.359,5.359,0,0,0,6.027-1.788c2.543-3.173,1.279-7.036-.7-8.009s-4.463.364-4.463.364l2.074-3.5S634.123-253.155,625.038-242.443Z" transform="translate(-620.3 245.752)" fill="#fd8753"/>
          </g>
        </g>
        <g id="Grupo_922792" data-name="Grupo 922792" transform="translate(96.469 19.242)">
          <path id="Trazado_607487" data-name="Trazado 607487" d="M622.339-229.122a.473.473,0,0,1-.473-.439c-.3-4.28,1.558-6.365,1.635-6.452a.472.472,0,0,1,.665-.03.472.472,0,0,1,.034.666c-.017.018-1.665,1.9-1.391,5.75a.472.472,0,0,1-.439.5Z" transform="translate(-621.833 236.165)"/>
        </g>
        <g id="Grupo_922793" data-name="Grupo 922793" transform="translate(112.589 23.703)">
          <path id="Trazado_607488" data-name="Trazado 607488" d="M634.757-229.652a.471.471,0,0,1-.436-.29.47.47,0,0,1,.254-.618l5.07-2.123a.471.471,0,0,1,.618.254.47.47,0,0,1-.254.618l-5.07,2.122A.456.456,0,0,1,634.757-229.652Z" transform="translate(-634.284 232.719)"/>
        </g>
        <g id="Grupo_922794" data-name="Grupo 922794" transform="translate(114.872 24.87)">
          <path id="Trazado_607489" data-name="Trazado 607489" d="M638.659-228.628a.468.468,0,0,1-.343-.146l-2.138-2.245a.473.473,0,0,1,.014-.668.473.473,0,0,1,.67.017L639-229.425a.471.471,0,0,1-.016.668A.471.471,0,0,1,638.659-228.628Z" transform="translate(-636.047 231.818)"/>
        </g>
        <g id="Grupo_922795" data-name="Grupo 922795" transform="translate(97.78 26.296)">
          <path id="Trazado_607490" data-name="Trazado 607490" d="M624.93-226.916a2.082,2.082,0,0,1-2.069-1.508.468.468,0,0,1,.063-.375.482.482,0,0,1,.321-.207,4.371,4.371,0,0,0,2.582-1.515.469.469,0,0,1,.523-.173.474.474,0,0,1,.333.44c0,.211.022,2.094-.786,2.925a1.319,1.319,0,0,1-.953.414Zm-.908-1.31a1.116,1.116,0,0,0,.917.365.372.372,0,0,0,.281-.128,2.109,2.109,0,0,0,.414-1.029A5.656,5.656,0,0,1,624.022-228.226Z" transform="translate(-622.846 230.717)"/>
        </g>
        <g id="Grupo_922796" data-name="Grupo 922796" transform="translate(101.365 17.155)">
          <path id="Trazado_607491" data-name="Trazado 607491" d="M626.088-233.486a.487.487,0,0,1-.147-.023.472.472,0,0,1-.3-.6l.645-1.974-.517-1.009a.473.473,0,0,1,.207-.636.472.472,0,0,1,.636.206l.6,1.183a.473.473,0,0,1,.027.361l-.706,2.162A.473.473,0,0,1,626.088-233.486Z" transform="translate(-625.615 237.776)"/>
        </g>
        <g id="Grupo_922797" data-name="Grupo 922797" transform="translate(95.195 16.531)">
          <path id="Trazado_607492" data-name="Trazado 607492" d="M621.322-233.968a.486.486,0,0,1-.146-.023.473.473,0,0,1-.3-.6l.645-1.976L621-237.572a.47.47,0,0,1,.206-.634.472.472,0,0,1,.636.2l.6,1.183a.473.473,0,0,1,.029.361l-.706,2.162A.473.473,0,0,1,621.322-233.968Z" transform="translate(-620.849 238.259)"/>
        </g>
        <g id="Grupo_922798" data-name="Grupo 922798" transform="translate(96.773 14.074)">
          <path id="Trazado_607493" data-name="Trazado 607493" d="M622.541-239.045a.473.473,0,0,1-.47-.417.473.473,0,0,1,.414-.524l1.4-.164a.462.462,0,0,1,.524.414.472.472,0,0,1-.413.524l-1.4.164A.419.419,0,0,1,622.541-239.045Z" transform="translate(-622.068 240.156)"/>
        </g>
        <g id="Grupo_922799" data-name="Grupo 922799" transform="translate(21.962 13.108)">
          <path id="Trazado_607494" data-name="Trazado 607494" d="M581.721-226.961S594-210.074,605.782-206.89s4.458,27.182,4.458,27.182-41.023,4.375-45.531-44.728c-3.26-35.512,13.464-2.525,13.464-2.525Z" transform="translate(-564.287 240.902)" fill="#fd8753"/>
        </g>
        <g id="Grupo_922800" data-name="Grupo 922800" transform="translate(100.992 14.187)">
          <path id="Trazado_607495" data-name="Trazado 607495" d="M628.584-237.854a.482.482,0,0,1-.2-.043l-2.784-1.27a.472.472,0,0,1-.234-.625.473.473,0,0,1,.627-.234l2.784,1.27a.471.471,0,0,1,.234.625A.474.474,0,0,1,628.584-237.854Z" transform="translate(-625.326 240.069)"/>
        </g>
        <g id="Grupo_922801" data-name="Grupo 922801" transform="translate(93.659 85.715)">
          <path id="Trazado_607496" data-name="Trazado 607496" d="M671.128-183.727s9.678,31.254,8.987,34.168-7.371,19.054-7.832,20.4S684.262-18.424,684.262-18.424L643.795-8.337S616.644-125.073,619.94-158.921,671.128-183.727,671.128-183.727Z" transform="translate(-619.663 184.824)" fill="#6aceae"/>
        </g>
        <g id="Grupo_922802" data-name="Grupo 922802" transform="translate(3.547 0)">
          <rect id="Rectángulo_305290" data-name="Rectángulo 305290" width="3.193" height="48.191" transform="translate(46.706 15.317) rotate(108.533)" fill="#fff"/>
        </g>
        <g id="Grupo_922804" data-name="Grupo 922804" transform="translate(96.398 5.646)">
          <g id="Grupo_922803" data-name="Grupo 922803">
            <path id="Trazado_607497" data-name="Trazado 607497" d="M637.442-228.51a18.429,18.429,0,0,1-8.686-7.2c-3.788-5.639-3.649-7.033-3.649-7.033l-2.591,5.425s-1.62-4.437-.058-7.12,3.29-2.2,3.29-2.2l11.506,2.468,4.221,9.1Z" transform="translate(-621.778 246.666)" fill="#12263f"/>
          </g>
        </g>
        <g id="Grupo_922805" data-name="Grupo 922805" transform="translate(53.713 38.233)">
          <path id="Trazado_607498" data-name="Trazado 607498" d="M590.615-217.865s21.437,2.369,27.756.79,22.369-3.5,34.2-4.174,29.771.113,37.895,1.467a115.1,115.1,0,0,1,11.622,2.369s-.677,12.862-2.482,21.325-2.144,10.041-2.144,10.041L679.749-187.4l6.287,26.878s-8.883,5.842-28.854,10.919-30.735,1.129-30.735,1.129l-6.386-31.479s-15.006-.225-22.565-1.918-8.688-1.919-8.688-1.919Z" transform="translate(-588.81 221.497)" fill="#f3c035"/>
        </g>
        <g id="Grupo_922806" data-name="Grupo 922806" transform="translate(18.407 1.541)">
          <path id="Trazado_607499" data-name="Trazado 607499" d="M581.378-221.8s4.576-9.63,4.3-11.838-5.064-3.734-5.064-3.734-.979-8.883-2.83-9.557-2.83,2.048-2.83,2.048-1.089-5.553-3.374-4.9-2.722,3.984-2.722,3.984-.436-4.383-3.158-3.312-5.1,11.782-3.79,20.962,9.45,12.826,9.45,12.826Z" transform="translate(-561.542 249.836)" fill="#fd8753"/>
        </g>
        <g id="Grupo_922807" data-name="Grupo 922807" transform="translate(37.008 13.528)">
          <path id="Trazado_607500" data-name="Trazado 607500" d="M577.033-233.443a.476.476,0,0,1-.47-.423l-.652-6.189a.474.474,0,0,1,.421-.519.474.474,0,0,1,.521.421l.652,6.189a.474.474,0,0,1-.422.519Z" transform="translate(-575.908 240.578)"/>
        </g>
        <g id="Grupo_922808" data-name="Grupo 922808" transform="translate(183.528 70.078)">
          <path id="Trazado_607501" data-name="Trazado 607501" d="M689.073-189.995s.615,8.354,1.9,11.3,3.616,6.419,5.407,5.913-1.053-8.347-1.053-8.347a88.854,88.854,0,0,1,9.061,6.637c3.871,3.356,5.172,6.087,7.144,6.032s1.627-3.8,1.627-3.8,1.573,2.1,3.163,1.357.4-4.774.4-4.774,2.766.9,3-1.928-6.69-11.488-12.892-15.72a19.466,19.466,0,0,0-12.159-3.539Z" transform="translate(-689.073 196.902)" fill="#fd8753"/>
        </g>
        <g id="Grupo_922809" data-name="Grupo 922809" transform="translate(193.037 79.65)">
          <path id="Trazado_607502" data-name="Trazado 607502" d="M696.89-183a.471.471,0,0,1-.418-.254.472.472,0,0,1,.2-.637l10.622-5.561a.473.473,0,0,1,.638.2.474.474,0,0,1-.2.638l-10.622,5.56A.467.467,0,0,1,696.89-183Z" transform="translate(-696.417 189.509)"/>
        </g>
        <g id="Grupo_922810" data-name="Grupo 922810" transform="translate(202.749 80.126)">
          <path id="Trazado_607503" data-name="Trazado 607503" d="M712.344-177.488a.474.474,0,0,1-.4-.221,89.582,89.582,0,0,0-7.9-10.639.472.472,0,0,1,.028-.668.471.471,0,0,1,.667.03,90.187,90.187,0,0,1,8,10.775.472.472,0,0,1-.148.651A.47.47,0,0,1,712.344-177.488Z" transform="translate(-703.918 189.141)"/>
        </g>
        <g id="Grupo_922811" data-name="Grupo 922811" transform="translate(198.307 82.918)">
          <path id="Trazado_607504" data-name="Trazado 607504" d="M709.794-174.707a.468.468,0,0,1-.373-.183l-8.833-11.332a.472.472,0,0,1,.082-.663.473.473,0,0,1,.664.083l8.833,11.332a.472.472,0,0,1-.083.663A.469.469,0,0,1,709.794-174.707Z" transform="translate(-700.488 186.984)"/>
        </g>
        <g id="Grupo_922812" data-name="Grupo 922812" transform="translate(188.4 72.698)">
          <path id="Trazado_607505" data-name="Trazado 607505" d="M697.711-185.154a.444.444,0,0,1-.082-.008.473.473,0,0,1-.385-.546c.781-4.5-4.17-8.281-4.22-8.32a.473.473,0,0,1-.1-.662.474.474,0,0,1,.662-.093c.224.167,5.465,4.165,4.585,9.237A.472.472,0,0,1,697.711-185.154Z" transform="translate(-692.836 194.878)"/>
        </g>
        <g id="Grupo_922813" data-name="Grupo 922813" transform="translate(97.616 254.193)">
          <path id="Trazado_607506" data-name="Trazado 607506" d="M663.4-41.622s-7.4-6.1-10.669-4.137-12.193,20.031-12.193,20.031-12.259,3.166-15.961,6.867-.87,10.015,0,10.45,29.677-.553,30.983-1.205,35.273-22.426,35.925-23.3-8.708-22.426-10.451-21.774S663.4-41.622,663.4-41.622Z" transform="translate(-622.719 54.7)" fill="#12263f"/>
        </g>
        <g id="Grupo_922814" data-name="Grupo 922814" transform="translate(177.484 225.598)">
          <path id="Trazado_607507" data-name="Trazado 607507" d="M684.405-51.911s7.838,22.644,6.532,23.95-4.789,11.1-4.789,15.677,5.661,8.708,6.75,8.708,20.95-22.861,21.688-24.168,8.358-44.634,7.487-44.851-22.149-5.145-23.206-4.025-3.14,23.4-3.14,23.4S688.543-57.79,684.405-51.911Z" transform="translate(-684.405 76.786)" fill="#12263f"/>
        </g>
        <g id="Grupo_922815" data-name="Grupo 922815" transform="translate(183.544 269.379)">
          <path id="Trazado_607508" data-name="Trazado 607508" d="M689.557-37.455a.475.475,0,0,1-.334-.139.474.474,0,0,1,0-.668l4.573-4.572a.472.472,0,0,1,.667,0,.471.471,0,0,1,0,.668l-4.572,4.572A.47.47,0,0,1,689.557-37.455Z" transform="translate(-689.086 42.972)" fill="#fff"/>
        </g>
        <g id="Grupo_922816" data-name="Grupo 922816" transform="translate(114.961 281.385)">
          <path id="Trazado_607509" data-name="Trazado 607509" d="M636.588-31.445a.472.472,0,0,1-.458-.357.47.47,0,0,1,.343-.572l5.224-1.306a.465.465,0,0,1,.572.342.471.471,0,0,1-.342.574L636.7-31.459A.5.5,0,0,1,636.588-31.445Z" transform="translate(-636.115 33.698)" fill="#fff"/>
        </g>
        <g id="Grupo_922817" data-name="Grupo 922817" transform="translate(144.657 121.517)">
          <path id="Trazado_607510" data-name="Trazado 607510" d="M669.954-49.982a.474.474,0,0,1-.47-.419c-1.091-9.355-10.662-91.447-10.429-93.032.234-1.6,7.345-11.562,8.768-13.542a.47.47,0,0,1,.659-.107.471.471,0,0,1,.107.659c-3.242,4.512-8.443,12.068-8.6,13.127-.111,1.743,6.777,61.457,10.433,92.786a.473.473,0,0,1-.414.524A.4.4,0,0,1,669.954-49.982Z" transform="translate(-659.051 157.172)" fill="#fff"/>
        </g>
        <g id="Grupo_922818" data-name="Grupo 922818" transform="translate(98.584 124.319)">
          <path id="Trazado_607511" data-name="Trazado 607511" d="M631.772-143.081a.466.466,0,0,1-.111-.013c-8.575-2.087-8.2-11.373-8.191-11.468a.472.472,0,0,1,.5-.447.47.47,0,0,1,.447.495c-.017.351-.335,8.6,7.471,10.5a.471.471,0,0,1,.347.57A.472.472,0,0,1,631.772-143.081Z" transform="translate(-623.466 155.008)" fill="#fff"/>
        </g>
        <g id="Grupo_922819" data-name="Grupo 922819" transform="translate(162.31 208.52)">
          <path id="Trazado_607512" data-name="Trazado 607512" d="M673.157-58.083a.472.472,0,0,1-.324-.129.474.474,0,0,1-.021-.668l29.164-30.947a.473.473,0,0,1,.667-.021.473.473,0,0,1,.021.668L673.5-58.233A.468.468,0,0,1,673.157-58.083Z" transform="translate(-672.685 89.975)" fill="#fff"/>
        </g>
        <g id="Grupo_922820" data-name="Grupo 922820" transform="translate(114.887 241.562)">
          <path id="Trazado_607513" data-name="Trazado 607513" d="M636.531-54.1a.474.474,0,0,1-.461-.366.474.474,0,0,1,.355-.566l40.963-9.405a.461.461,0,0,1,.566.353.473.473,0,0,1-.354.567l-40.963,9.405A.437.437,0,0,1,636.531-54.1Z" transform="translate(-636.058 64.456)" fill="#fff"/>
        </g>
        <g id="Grupo_922821" data-name="Grupo 922821" transform="translate(81.558 73.076)">
          <path id="Trazado_607514" data-name="Trazado 607514" d="M613.724-187.414a.476.476,0,0,1-.427-.271l-2.935-6.228a.473.473,0,0,1,.225-.629.477.477,0,0,1,.629.225l2.935,6.228a.473.473,0,0,1-.225.629A.483.483,0,0,1,613.724-187.414Z" transform="translate(-610.316 194.586)" fill="#fff"/>
        </g>
        <g id="Grupo_922822" data-name="Grupo 922822" transform="translate(144.179 65.854)">
          <path id="Trazado_607515" data-name="Trazado 607515" d="M659.155-193.216a.474.474,0,0,1-.473-.473v-6a.473.473,0,0,1,.473-.473.473.473,0,0,1,.473.473v6A.474.474,0,0,1,659.155-193.216Z" transform="translate(-658.682 200.164)" fill="#fff"/>
        </g>
      </g>
      <g id="Grupo_922879" data-name="Grupo 922879" transform="translate(0 43.579)">
        <g id="Grupo_922871" data-name="Grupo 922871">
          <g id="Grupo_922824" data-name="Grupo 922824" transform="translate(29.541 235.562)">
            <path id="Trazado_607516" data-name="Trazado 607516" d="M383.439-55.3v21.9H355.6V-62.162Z" transform="translate(-355.596 62.162)" fill="#fd8753"/>
          </g>
          <g id="Grupo_922825" data-name="Grupo 922825" transform="translate(101.177 234.233)">
            <path id="Trazado_607517" data-name="Trazado 607517" d="M439.613-63.189l5.838,21.113L418.59-34.65l-7.666-27.723Z" transform="translate(-410.924 63.189)" fill="#fd8753"/>
          </g>
          <g id="Grupo_922826" data-name="Grupo 922826">
            <path id="Trazado_607518" data-name="Trazado 607518" d="M382.55-236.328s-7.142-12.014-18.552-6.166-10.16,17.948-18.822,20.722-15.752,10.245-10.719,19.878c4.211,8.059,15.616,5.5,15.616,5.5s7.09,12.076,19.624,7.947,18.251-10.64,16.939-21.031S382.55-236.328,382.55-236.328Z" transform="translate(-332.78 244.099)" fill="#12263f"/>
          </g>
          <g id="Grupo_922827" data-name="Grupo 922827" transform="translate(39.386 4.786)">
            <path id="Trazado_607519" data-name="Trazado 607519" d="M393.965-219.962s6.774-9.894-6.94-17.693-23.708,2.894-23.822,8.641,3.157,8.409,3.157,8.409-1.278,12.449,10.683,11.594S393.965-219.962,393.965-219.962Z" transform="translate(-363.2 240.402)" fill="#12263f"/>
          </g>
          <g id="Grupo_922829" data-name="Grupo 922829" transform="translate(51.832 34.18)">
            <g id="Grupo_922828" data-name="Grupo 922828">
              <path id="Trazado_607520" data-name="Trazado 607520" d="M373.065-217.7l-.253,10.059s1.741,2.936,7.614,3.562c4.374.467,5.939-.486,5.939-.486l-.483-5.109-.478-4.983-10.568-2.6Z" transform="translate(-372.812 217.7)" fill="#fd8753"/>
            </g>
          </g>
          <g id="Grupo_922831" data-name="Grupo 922831" transform="translate(52.114 33.701)">
            <g id="Grupo_922830" data-name="Grupo 922830">
              <path id="Trazado_607521" data-name="Trazado 607521" d="M373.03-218.07a3.338,3.338,0,0,0,.268.978c2.125,5.082,9.994,7.236,12.52,7.528l-.478-4.983Z" transform="translate(-373.03 218.07)"/>
            </g>
          </g>
          <g id="Grupo_922833" data-name="Grupo 922833" transform="translate(45.099 10.47)">
            <g id="Grupo_922832" data-name="Grupo 922832">
              <path id="Trazado_607522" data-name="Trazado 607522" d="M389.755-232.132s4.963,12.744,2.706,19.7-8.622,5.587-12.4,4.071A12.7,12.7,0,0,1,374.6-212.3a5.412,5.412,0,0,1-5.892-2.36c-2.261-3.427-.631-7.194,1.451-7.986s4.453.781,4.453.781l-1.758-3.716S381.62-243.749,389.755-232.132Z" transform="translate(-367.612 236.013)" fill="#fd8753"/>
            </g>
          </g>
          <g id="Grupo_922834" data-name="Grupo 922834" transform="translate(66.615 23.575)">
            <path id="Trazado_607523" data-name="Trazado 607523" d="M385.652-218.674a.543.543,0,0,1-.078-.005.473.473,0,0,1-.388-.544c.634-3.844-.848-5.892-.862-5.912a.476.476,0,0,1,.095-.662.473.473,0,0,1,.66.092c.07.095,1.744,2.362,1.04,6.636A.472.472,0,0,1,385.652-218.674Z" transform="translate(-384.23 225.891)"/>
          </g>
          <g id="Grupo_922835" data-name="Grupo 922835" transform="translate(46.447 26.228)">
            <path id="Trazado_607524" data-name="Trazado 607524" d="M374.025-220.291a.47.47,0,0,1-.223-.056l-4.9-2.606a.473.473,0,0,1-.2-.64.477.477,0,0,1,.64-.2l4.9,2.608a.472.472,0,0,1,.194.638A.47.47,0,0,1,374.025-220.291Z" transform="translate(-368.653 223.842)"/>
          </g>
          <g id="Grupo_922836" data-name="Grupo 922836" transform="translate(46.782 27.66)">
            <path id="Trazado_607525" data-name="Trazado 607525" d="M369.383-219.732a.471.471,0,0,1-.356-.162.474.474,0,0,1,.045-.667l2.359-2.057a.472.472,0,0,1,.668.045.474.474,0,0,1-.045.667l-2.359,2.057A.473.473,0,0,1,369.383-219.732Z" transform="translate(-368.912 222.736)"/>
          </g>
          <g id="Grupo_922837" data-name="Grupo 922837" transform="translate(45.714 7.92)">
            <path id="Trazado_607526" data-name="Trazado 607526" d="M391.584-225.24a10.756,10.756,0,0,0-2.6-5.762c-2.525-2.826-4.657-2.359-4.657-2.359s3.722,8.153-2.544,11.026c-4.458,2.043-7.313,1.05-7.313,1.05l-6.381-6.334,12.694-10.307S392.352-239.55,391.584-225.24Z" transform="translate(-368.087 237.982)" fill="#12263f"/>
          </g>
          <g id="Grupo_922838" data-name="Grupo 922838" transform="translate(62.112 30.419)">
            <path id="Trazado_607527" data-name="Trazado 607527" d="M383.532-217.65a.485.485,0,0,1-.153-.026,5.243,5.243,0,0,1-2.561-2.215.472.472,0,0,1,.167-.647.473.473,0,0,1,.646.166,4.306,4.306,0,0,0,2.055,1.8.472.472,0,0,1,.293.6A.473.473,0,0,1,383.532-217.65Z" transform="translate(-380.752 220.605)"/>
          </g>
          <g id="Grupo_922839" data-name="Grupo 922839" transform="translate(62.621 21.156)">
            <path id="Trazado_607528" data-name="Trazado 607528" d="M382.124-223.442a.471.471,0,0,1-.46-.368l-.508-2.24a.476.476,0,0,1,.061-.357l.719-1.133a.473.473,0,0,1,.653-.145.473.473,0,0,1,.146.651l-.614.967.464,2.048a.471.471,0,0,1-.356.565A.483.483,0,0,1,382.124-223.442Z" transform="translate(-381.145 227.759)"/>
          </g>
          <g id="Grupo_922840" data-name="Grupo 922840" transform="translate(68.882 21.103)">
            <path id="Trazado_607529" data-name="Trazado 607529" d="M386.96-223.482a.471.471,0,0,1-.46-.369l-.508-2.239a.474.474,0,0,1,.061-.357l.719-1.133a.473.473,0,0,1,.653-.146.475.475,0,0,1,.146.653l-.614.967.464,2.047a.473.473,0,0,1-.356.566A.484.484,0,0,1,386.96-223.482Z" transform="translate(-385.981 227.8)"/>
          </g>
          <g id="Grupo_922841" data-name="Grupo 922841" transform="translate(66.94 18.367)">
            <path id="Trazado_607530" data-name="Trazado 607530" d="M386.343-228.673a.428.428,0,0,1-.1-.01l-1.391-.3a.472.472,0,0,1-.362-.561.471.471,0,0,1,.561-.364l1.389.3a.471.471,0,0,1,.363.561A.47.47,0,0,1,386.343-228.673Z" transform="translate(-384.481 229.913)"/>
          </g>
          <g id="Grupo_922848" data-name="Grupo 922848" transform="translate(115.032 4.406)">
            <g id="Grupo_922842" data-name="Grupo 922842" transform="translate(2.927 1.619)">
              <path id="Trazado_607531" data-name="Trazado 607531" d="M423.886-205.489,446.523-191.6l25.368-33.957-22.637-13.886Z" transform="translate(-423.886 239.446)" fill="#0f1e52"/>
            </g>
            <g id="Grupo_922843" data-name="Grupo 922843">
              <path id="Trazado_607532" data-name="Trazado 607532" d="M421.625-206.739l22.637,13.886L469.63-226.81,446.993-240.7Z" transform="translate(-421.625 240.696)" fill="#fff"/>
            </g>
            <g id="Grupo_922884" data-name="Grupo 922884" transform="translate(16.602 5.512)">
              <g id="Grupo_922844" data-name="Grupo 922844" transform="translate(7.96)">
                <path id="Trazado_607533" data-name="Trazado 607533" d="M457.682-225.3a.476.476,0,0,1-.247-.069L440.82-235.564a.474.474,0,0,1-.155-.65.469.469,0,0,1,.649-.155l16.614,10.192a.471.471,0,0,1,.155.65A.468.468,0,0,1,457.682-225.3Z" transform="translate(-440.595 236.44)" fill="#0f1e52"/>
              </g>
              <g id="Grupo_922845" data-name="Grupo 922845" transform="translate(5.267 3.507)">
                <path id="Trazado_607534" data-name="Trazado 607534" d="M455.6-222.594a.465.465,0,0,1-.247-.07L438.74-232.855a.474.474,0,0,1-.155-.65.469.469,0,0,1,.649-.155l16.616,10.191a.472.472,0,0,1,.155.65A.47.47,0,0,1,455.6-222.594Z" transform="translate(-438.515 233.731)" fill="#0f1e52"/>
              </g>
              <g id="Grupo_922846" data-name="Grupo 922846" transform="translate(2.637 7.052)">
                <path id="Trazado_607535" data-name="Trazado 607535" d="M453.571-219.857a.476.476,0,0,1-.247-.069l-16.614-10.192a.473.473,0,0,1-.155-.65.471.471,0,0,1,.649-.155l16.614,10.191a.472.472,0,0,1,.155.65A.467.467,0,0,1,453.571-219.857Z" transform="translate(-436.484 230.993)" fill="#0f1e52"/>
              </g>
              <g id="Grupo_922847" data-name="Grupo 922847" transform="translate(0 10.592)">
                <path id="Trazado_607536" data-name="Trazado 607536" d="M451.534-217.122a.464.464,0,0,1-.246-.07l-16.614-10.191a.471.471,0,0,1-.155-.65.469.469,0,0,1,.649-.155L451.781-218a.473.473,0,0,1,.155.65A.467.467,0,0,1,451.534-217.122Z" transform="translate(-434.448 228.259)" fill="#0f1e52"/>
              </g>
            </g>
          </g>
          <g id="Grupo_922849" data-name="Grupo 922849" transform="translate(66.328 22.346)">
            <path id="Trazado_607537" data-name="Trazado 607537" d="M408.548-226.84l-24.54,32.691,23.565,13.77,15.253-40.4Z" transform="translate(-384.008 226.84)" fill="#fd8753"/>
          </g>
          <g id="Grupo_922850" data-name="Grupo 922850" transform="translate(61.175 18.217)">
            <path id="Trazado_607538" data-name="Trazado 607538" d="M380.5-228.069a.472.472,0,0,1-.445-.317.473.473,0,0,1,.29-.6L383.262-230a.473.473,0,0,1,.6.29.472.472,0,0,1-.29.6l-2.917,1.016A.5.5,0,0,1,380.5-228.069Z" transform="translate(-380.028 230.029)"/>
          </g>
          <g id="Grupo_922851" data-name="Grupo 922851" transform="translate(81.379 34.592)">
            <path id="Trazado_607539" data-name="Trazado 607539" d="M440.657-197.207s.528-9.322,3.342-13.015,7.739-6.562,8.794-4.424-2.286,5.231-1.76,6.5,4.046.631,9.322-1.249,8.793-7.985,8.793-7.985a9.657,9.657,0,0,1,.7,4.617A10.275,10.275,0,0,1,468.8-209.4s1.12-2.534,1.126,2.1a5.7,5.7,0,0,1-2.007,3.955s1.583,1.911-1.758,6.132-12.663,8.09-12.663,8.09-10.376,25.325-27.436,32.009a34.681,34.681,0,0,1-30.427-2.287l5.276-27.788S419.2-180.676,440.657-197.207Z" transform="translate(-395.633 217.382)" fill="#fd8753"/>
          </g>
          <g id="Grupo_922852" data-name="Grupo 922852" transform="translate(145.738 41.242)">
            <path id="Trazado_607540" data-name="Trazado 607540" d="M445.813-205.614a.471.471,0,0,1-.462-.375.471.471,0,0,1,.365-.558c3.9-.818,8.439-5.507,8.486-5.553a.473.473,0,0,1,.667-.014.471.471,0,0,1,.013.668c-.194.2-4.787,4.946-8.971,5.822A.419.419,0,0,1,445.813-205.614Z" transform="translate(-445.34 212.246)"/>
          </g>
          <g id="Grupo_922853" data-name="Grupo 922853" transform="translate(146.529 48.162)">
            <path id="Trazado_607541" data-name="Trazado 607541" d="M446.423-202.595a.472.472,0,0,1-.465-.394.471.471,0,0,1,.387-.544,10.573,10.573,0,0,0,6.368-3.186.469.469,0,0,1,.66-.083.47.47,0,0,1,.087.66c-.087.111-2.147,2.727-6.958,3.54A.417.417,0,0,1,446.423-202.595Z" transform="translate(-445.952 206.901)"/>
          </g>
          <g id="Grupo_922854" data-name="Grupo 922854" transform="translate(17.61 90.319)">
            <path id="Trazado_607542" data-name="Trazado 607542" d="M400.632-158.54a641.454,641.454,0,0,1,41.3,64.494c18.626,33.933,28.982,76.38,28.982,76.38l-47.7,2.951L388.533-98.567l10.2,82.734L352.6-17.447s-9.983-76.806-4.66-113.035,11.563-43.858,11.563-43.858Z" transform="translate(-346.381 174.341)" fill="#f3c035"/>
          </g>
          <g id="Grupo_922855" data-name="Grupo 922855" transform="translate(41.065 6.662)">
            <path id="Trazado_607543" data-name="Trazado 607543" d="M367.839-219.407a.47.47,0,0,1-.37-.177c-8.047-10.129,2.78-19.173,2.891-19.263a.475.475,0,0,1,.664.067.471.471,0,0,1-.066.664c-.421.344-10.213,8.549-2.749,17.944a.472.472,0,0,1-.076.663A.464.464,0,0,1,367.839-219.407Z" transform="translate(-364.496 238.953)" fill="#fff"/>
          </g>
          <g id="Grupo_922856" data-name="Grupo 922856" transform="translate(25.522 43.397)">
            <path id="Trazado_607544" data-name="Trazado 607544" d="M424.97-188.836s-18.156-20.313-40.075-21.633-29.307,9.234-30.362,14.246-2.9,40.891-1.583,43.264,10.314,6.6,24.943,7.651,22.279-.791,23.334-1.582,2.375-11.872,2.375-11.872L416-155.6Z" transform="translate(-352.492 210.581)" fill="#6aceae"/>
          </g>
          <g id="Grupo_922857" data-name="Grupo 922857" transform="translate(17.293 34.182)">
            <path id="Trazado_607545" data-name="Trazado 607545" d="M380.926-217.7s6.171,13.887-.251,19.394-15.979,1.945-15.979,1.945-3.223,2.064-9.386-.021a17.86,17.86,0,0,1-9.175-7.8Z" transform="translate(-346.136 217.698)" fill="#12263f"/>
          </g>
          <g id="Grupo_922858" data-name="Grupo 922858" transform="translate(90.867 3.034)">
            <path id="Trazado_607546" data-name="Trazado 607546" d="M402.961-222.444s6.164-9.671,9.263-11.8,20.368-8.917,22.073-7.258-8.39,8.584-8.39,8.584a3.06,3.06,0,0,1,2.161,1.774,3.206,3.206,0,0,1-.339,2.535s2.153-.071,2.758,1.388a3.783,3.783,0,0,1-.39,3.063s-3.968,7.245-6.224,7.4-1.959-3.853-1.959-3.853-.821,3.656-2.789,5.668-6,2.224-10.174.026S402.961-222.444,402.961-222.444Z" transform="translate(-402.961 241.755)" fill="#fd8753"/>
          </g>
          <g id="Grupo_922859" data-name="Grupo 922859" transform="translate(95.211 14.333)">
            <path id="Trazado_607547" data-name="Trazado 607547" d="M406.79-218.678a.476.476,0,0,1-.471-.423.474.474,0,0,1,.421-.519c4.758-.5,5.914-6.636,5.926-6.7a.473.473,0,0,1,.2-.309.5.5,0,0,1,.363-.069c2.249.495,4.952.675,5.4.1.089-.117.009-.341-.075-.508-1.24-2.473-6.975-5-7.032-5.022a.471.471,0,0,1-.245-.621.476.476,0,0,1,.621-.245c.249.109,6.107,2.687,7.5,5.465a1.331,1.331,0,0,1-.026,1.511c-.9,1.164-4.3.651-5.883.338-.388,1.578-1.968,6.5-6.652,7Z" transform="translate(-406.316 233.029)"/>
          </g>
          <g id="Grupo_922860" data-name="Grupo 922860" transform="translate(106.863 11.406)">
            <path id="Trazado_607548" data-name="Trazado 607548" d="M415.789-226.971a.472.472,0,0,1-.449-.325.471.471,0,0,1,.3-.6c2.714-.889,6.176-7.093,6.21-7.156a.477.477,0,0,1,.642-.184.473.473,0,0,1,.185.642c-.149.268-3.678,6.592-6.743,7.6A.48.48,0,0,1,415.789-226.971Z" transform="translate(-415.316 235.29)"/>
          </g>
          <g id="Grupo_922861" data-name="Grupo 922861" transform="translate(105.781 15.713)">
            <path id="Trazado_607549" data-name="Trazado 607549" d="M417.169-222.663c-.03,0-.057,0-.085,0a2.625,2.625,0,0,1-2.069-.967,3.441,3.441,0,0,1-.461-2.571.471.471,0,0,1,.563-.357.473.473,0,0,1,.36.562,2.514,2.514,0,0,0,.293,1.8,1.743,1.743,0,0,0,1.362.592c1.747.075,5.1-4.921,6.784-8.1a.472.472,0,0,1,.638-.2.472.472,0,0,1,.2.638C424.28-230.381,420.106-222.663,417.169-222.663Z" transform="translate(-414.48 231.963)"/>
          </g>
          <g id="Grupo_922862" data-name="Grupo 922862" transform="translate(74.085 84.948)">
            <path id="Trazado_607550" data-name="Trazado 607550" d="M392.546-167.749a.471.471,0,0,1-.435-.287c-.614-1.44-3.553-8.7-1.234-10.25a.965.965,0,0,1,1.062-.08c1.543.89,1.214,8.015,1.078,10.177a.473.473,0,0,1-.392.435A.409.409,0,0,1,392.546-167.749Zm-1.08-9.8c-1.041.7-.334,4.054.708,7.049C392.265-174.209,391.981-177.284,391.466-177.549Z" transform="translate(-389.999 178.489)" fill="#fff"/>
          </g>
          <g id="Grupo_922863" data-name="Grupo 922863" transform="translate(25.988 104.556)">
            <path id="Trazado_607551" data-name="Trazado 607551" d="M383.82-153.19c-9.79,0-22.925-1.647-30.825-9.344a.473.473,0,0,1-.009-.669.476.476,0,0,1,.669-.008c13.171,12.836,42.448,8.223,42.742,8.175a.48.48,0,0,1,.543.391.474.474,0,0,1-.391.542A85.892,85.892,0,0,1,383.82-153.19Z" transform="translate(-352.851 163.345)" fill="#fff"/>
          </g>
          <g id="Grupo_922864" data-name="Grupo 922864" transform="translate(35.329 147.614)">
            <path id="Trazado_607552" data-name="Trazado 607552" d="M384.711-111.137a.475.475,0,0,1-.409-.236c-.065-.113-6.709-11.251-23.931-17.8a.47.47,0,0,1-.273-.61.467.467,0,0,1,.609-.273c17.555,6.677,24.345,18.1,24.412,18.209a.472.472,0,0,1-.171.646A.48.48,0,0,1,384.711-111.137Z" transform="translate(-360.066 130.089)" fill="#fff"/>
          </g>
          <g id="Grupo_922865" data-name="Grupo 922865" transform="translate(17.97 120.468)">
            <path id="Trazado_607553" data-name="Trazado 607553" d="M348.432-130.621c-.435,0-.877-.013-1.331-.044a.472.472,0,0,1-.44-.5.471.471,0,0,1,.5-.44c4.08.277,7.359-.743,9.743-3.012,3.861-3.668,4.277-9.6,4.321-11.022l-11.336-4.5a.472.472,0,0,1-.264-.612.475.475,0,0,1,.614-.264l11.637,4.624a.47.47,0,0,1,.3.431c.005.307.073,7.57-4.613,12.03A12.741,12.741,0,0,1,348.432-130.621Z" transform="translate(-346.659 151.055)" fill="#fff"/>
          </g>
          <g id="Grupo_922866" data-name="Grupo 922866" transform="translate(54.678 123.121)">
            <path id="Trazado_607554" data-name="Trazado 607554" d="M388.426-126.894c-9.975,0-13.37-15.919-13.406-16.089a.474.474,0,0,1,.324-.546l17.61-5.457a.474.474,0,0,1,.579.276c.2.5,4.877,12.323,1.458,18.372a6.612,6.612,0,0,1-4.973,3.315A10.019,10.019,0,0,1,388.426-126.894Zm-12.383-15.862c.63,2.592,4.449,16.327,13.823,14.8a5.711,5.711,0,0,0,4.3-2.846c2.861-5.061-.568-15.019-1.357-17.15Z" transform="translate(-375.01 149.007)" fill="#fff"/>
          </g>
          <g id="Grupo_922867" data-name="Grupo 922867" transform="translate(104.55 248.602)">
            <path id="Trazado_607555" data-name="Trazado 607555" d="M417.09-17.756s-6.76-31.694-1.651-31.793,13.358,3.2,13.358,3.2,10.512-7.8,16.034-5.215,9.535,9.525,9.535,9.525l30.662,13.833s4.2,4.851,3.64,7.684c-.435,2.211-43.01,7.56-61.7,9.8a8.723,8.723,0,0,1-9.875-7.037Z" transform="translate(-413.529 52.091)" fill="#294ddc"/>
          </g>
          <g id="Grupo_922869" data-name="Grupo 922869" transform="translate(25.133 248.502)">
            <path id="Trazado_607557" data-name="Trazado 607557" d="M387.4-45.864s18.194,29.714,15.054,33.384-25.3,4.177-35.42,2.557-13.994-2.835-14.76-5.3,4.036-33,4.036-33,4.457-5.018,10.564-3.726,15.677,6.021,15.677,6.021S384.926-50.017,387.4-45.864Z" transform="translate(-352.191 52.168)" fill="#294ddc"/>
          </g>
          <g id="Grupo_922870" data-name="Grupo 922870" transform="translate(55.019 254.262)">
            <path id="Trazado_607558" data-name="Trazado 607558" d="M379.893-44.322a.463.463,0,0,1-.241-.066l-4.146-2.452a.473.473,0,0,1-.167-.647.475.475,0,0,1,.647-.167l4.146,2.452a.473.473,0,0,1,.167.647A.471.471,0,0,1,379.893-44.322Z" transform="translate(-375.273 47.719)" fill="#5e1dbb"/>
          </g>
        </g>
        <g id="Grupo_922878" data-name="Grupo 922878" transform="translate(123.072 87.162)">
          <g id="Grupo_922872" data-name="Grupo 922872" transform="translate(0 10.201)">
            <path id="Rectángulo_305291" data-name="Rectángulo 305291" d="M2.852,0H51.668A2.852,2.852,0,0,1,54.52,2.852V25.99a2.852,2.852,0,0,1-2.852,2.852H2.853A2.853,2.853,0,0,1,0,25.99V2.852A2.852,2.852,0,0,1,2.852,0Z" transform="translate(54.52 28.843) rotate(180)" fill="#b8ebd6"/>
          </g>
          <g id="Grupo_922873" data-name="Grupo 922873" transform="translate(7.035)">
            <path id="Trazado_607559" data-name="Trazado 607559" d="M450.5-164.468l-17.235-12.311,4.221,12.311Z" transform="translate(-433.268 176.779)" fill="#b8ebd6"/>
          </g>
          <g id="Grupo_922874" data-name="Grupo 922874" transform="translate(38.648 15.828)">
            <rect id="Rectángulo_305292" data-name="Rectángulo 305292" width="5.98" height="17.587" transform="translate(5.98 17.587) rotate(180)" fill="#294ddc"/>
          </g>
          <g id="Grupo_922875" data-name="Grupo 922875" transform="translate(29.063 18.994)">
            <rect id="Rectángulo_305293" data-name="Rectángulo 305293" width="5.98" height="14.422" transform="translate(5.98 14.422) rotate(180)" fill="#f3c035"/>
          </g>
          <g id="Grupo_922876" data-name="Grupo 922876" transform="translate(9.893 18.994)">
            <rect id="Rectángulo_305294" data-name="Rectángulo 305294" width="5.98" height="14.422" transform="translate(5.98 14.422) rotate(180)" fill="#6aceae"/>
          </g>
          <g id="Grupo_922877" data-name="Grupo 922877" transform="translate(19.478 24.622)">
            <rect id="Rectángulo_305295" data-name="Rectángulo 305295" width="5.98" height="8.794" transform="translate(5.98 8.794) rotate(180)" fill="#0f1e52"/>
          </g>
        </g>
      </g>
    </g>
  </g>
</svg>
