<svg xmlns="http://www.w3.org/2000/svg" xmlns:xlink="http://www.w3.org/1999/xlink" width="92" height="99" viewBox="0 0 92 99">
  <defs>
    <clipPath id="clip-path">
      <rect id="Rectángulo_37021" data-name="Rectángulo 37021" width="92" height="90" transform="translate(0 0.265)" fill="#dbf049"/>
    </clipPath>
  </defs>
  <g id="Grupo_930034" data-name="Grupo 930034" transform="translate(-839 -1418)">
    <circle id="Elipse_5327" data-name="Elipse 5327" cx="46" cy="46" r="46" transform="translate(839 1418)" fill="#fff"/>
    <g id="Enmascarar_grupo_158" data-name="Enmascarar grupo 158" transform="translate(839 1426.735)" clip-path="url(#clip-path)">
      <g id="monitor" transform="translate(0 0.111)">
        <path id="Trazado_140054" data-name="Trazado 140054" d="M35.835,54.222H50.1V77.964H35.835Zm0,0" transform="translate(2.575 3.807)" fill="#4172cc"/>
        <path id="Trazado_140055" data-name="Trazado 140055" d="M49.619,54.222V72.177H46.205a3.718,3.718,0,0,1-3.717-3.719V54.222Zm0,0" transform="translate(3.053 3.807)" fill="#6990d7"/>
        <path id="Trazado_140056" data-name="Trazado 140056" d="M88.11,60.532H2.793a1.546,1.546,0,0,1-1.546-1.545V2.969A1.546,1.546,0,0,1,2.793,1.423H88.109a1.546,1.546,0,0,1,1.546,1.546V58.987a1.545,1.545,0,0,1-1.545,1.545Zm0,0" transform="translate(0.09 0.013)" fill="#91aee2"/>
        <path id="Trazado_140057" data-name="Trazado 140057" d="M84.52,7.231V53.818a.891.891,0,0,1-.891.891h-77a.891.891,0,0,1-.891-.891V7.231A.891.891,0,0,1,6.63,6.34h77a.891.891,0,0,1,.891.891Zm0,0" transform="translate(0.413 0.367)" fill="#ffc14f"/>
        <path id="Trazado_140058" data-name="Trazado 140058" d="M84.146,7.231V49.983H11.833a.892.892,0,0,1-.892-.891V6.34H83.255a.891.891,0,0,1,.891.891Zm0,0" transform="translate(0.786 0.367)" fill="#ffcd71"/>
        <path id="Trazado_140059" data-name="Trazado 140059" d="M72.83,82.213a1.74,1.74,0,0,1-1.74,1.741H17.7a1.74,1.74,0,0,1-1.738-1.741,7.535,7.535,0,0,1,7.533-7.532H65.3a7.529,7.529,0,0,1,7.532,7.532Zm0,0" transform="translate(1.147 5.278)" fill="#2e5aac"/>
        <path id="Trazado_140060" data-name="Trazado 140060" d="M72.323,81.926a1.74,1.74,0,0,1-1.74,1.741H23.018a7.547,7.547,0,0,1,7.094-4.994H71.585a7.472,7.472,0,0,1,.737,3.253Zm0,0" transform="translate(1.654 5.564)" fill="#4172cc"/>
        <path id="Trazado_140061" data-name="Trazado 140061" d="M41.335,25.617V49.253a.6.6,0,0,1-.6.6H19.526a.6.6,0,0,1-.6-.6V25.617a.6.6,0,0,1,.6-.6H40.732A.6.6,0,0,1,41.335,25.617Zm0,0" transform="translate(1.36 1.709)" fill="#7d8287"/>
        <path id="Trazado_140062" data-name="Trazado 140062" d="M40.976,25.617V49.253a.6.6,0,0,1-.6.6H24.515a.6.6,0,0,1-.6-.6V25.617a.6.6,0,0,1,.6-.6H40.373A.6.6,0,0,1,40.976,25.617Zm0,0" transform="translate(1.719 1.709)" fill="#919196"/>
        <path id="Trazado_140063" data-name="Trazado 140063" d="M33.748,34.163a4.1,4.1,0,0,1-2.374,3.716v4.476a1.721,1.721,0,1,1-3.443,0V37.879a4.1,4.1,0,1,1,5.817-3.716Zm0,0" transform="translate(1.837 2.072)" fill="#4b5055"/>
        <path id="Trazado_140064" data-name="Trazado 140064" d="M33.589,34.152a4.1,4.1,0,0,1-2.374,3.716v4.476a1.721,1.721,0,0,1-.54,1.25,1.721,1.721,0,0,1-.54-1.25V37.868a4.1,4.1,0,0,1,.54-7.64,4.1,4.1,0,0,1,2.915,3.924Zm0,0" transform="translate(1.995 2.083)" fill="#5a5f64"/>
        <path id="Trazado_140065" data-name="Trazado 140065" d="M41.92,9.592A8.325,8.325,0,0,0,33.6,17.909v8.213h3.216V18.017a5.171,5.171,0,0,1,4.948-5.206,5.105,5.105,0,0,1,5.254,5.1v6.6a1.608,1.608,0,1,0,3.216,0v-6.6A8.325,8.325,0,0,0,41.92,9.592Zm0,0" transform="translate(2.415 0.6)" fill="#4b5055"/>
        <path id="Trazado_140066" data-name="Trazado 140066" d="M86.465,52.971A20.4,20.4,0,1,1,68.732,32.736,20.411,20.411,0,0,1,86.465,52.971Zm0,0" transform="translate(3.28 2.251)" fill="#c42d2d"/>
        <path id="Trazado_140067" data-name="Trazado 140067" d="M86.107,52.96A20.411,20.411,0,0,1,68.373,73.194a20.411,20.411,0,0,1,0-40.469A20.412,20.412,0,0,1,86.107,52.96Zm0,0" transform="translate(3.639 2.263)" fill="#f44545"/>
        <path id="Trazado_140068" data-name="Trazado 140068" d="M64.982,57.287A3.861,3.861,0,0,1,61.131,53.7l-.781-10.837a4.664,4.664,0,1,1,9.3.017l-.82,10.834A3.86,3.86,0,0,1,64.982,57.287Zm0,0" transform="translate(4.336 2.632)" fill="#ffc14f"/>
        <path id="Trazado_140069" data-name="Trazado 140069" d="M67.944,62.7a3.051,3.051,0,1,1-3.051-3.051A3.051,3.051,0,0,1,67.944,62.7Zm0,0" transform="translate(4.444 4.197)" fill="#ffc14f"/>
        <path id="Trazado_140070" data-name="Trazado 140070" d="M91.083,2.966A2.887,2.887,0,0,0,88.2.083H14.512a1.366,1.366,0,0,0-1.371,1.163,1.338,1.338,0,0,0,1.326,1.511H88.2a.209.209,0,0,1,.209.209v41.9a21.85,21.85,0,0,0-2.139-3.191V7.681a2.229,2.229,0,0,0-2.228-2.228h-77A2.228,2.228,0,0,0,4.813,7.681V54.268A2.228,2.228,0,0,0,7.042,56.5H47.623a21.844,21.844,0,0,0,.316,2.7H2.882a.209.209,0,0,1-.209-.209V2.966a.209.209,0,0,1,.209-.209H9.074a1.367,1.367,0,0,0,1.371-1.163A1.338,1.338,0,0,0,9.119.083H2.882A2.886,2.886,0,0,0,0,2.966V58.983a2.883,2.883,0,0,0,2.883,2.883H37.073V78.7H31.642a1.367,1.367,0,0,0-1.371,1.162A1.339,1.339,0,0,0,31.6,81.378H66.445a6.2,6.2,0,0,1,6.2,6.195.4.4,0,0,1-.4.4H18.844a.4.4,0,0,1-.4-.4,6.2,6.2,0,0,1,6.2-6.2h1.554a1.374,1.374,0,0,0,1.392-1.295A1.336,1.336,0,0,0,26.248,78.7h-1.61a8.88,8.88,0,0,0-8.869,8.869,3.079,3.079,0,0,0,3.075,3.077H73.977a1.337,1.337,0,0,0,1.337-1.337V87.573A8.869,8.869,0,0,0,66.444,78.7H54.01V70.716A21.76,21.76,0,0,0,90.354,60.9c1.284-4.814.483-3.407.729-57.932ZM47.643,53.822H7.488V8.127H83.595V38.9C70.119,27.173,48.852,35.925,47.643,53.822ZM51.335,78.7H39.747V61.866H48.6a21.677,21.677,0,0,0,2.732,5.627Zm18-4.327A19.057,19.057,0,0,1,54.01,66.642c-9.283-12.536-.277-30.407,15.328-30.407a19.021,19.021,0,0,1,14.256,6.42C94.508,54.908,85.7,74.377,69.338,74.377Zm0,0" transform="translate(0 -0.083)"/>
        <path id="Trazado_140071" data-name="Trazado 140071" d="M26.683,38.742v3.7a3.059,3.059,0,1,0,6.118,0v-3.7a5.433,5.433,0,1,0-6.118,0Zm3.059-7.249A2.762,2.762,0,0,1,30.9,36.756a1.336,1.336,0,0,0-.774,1.213v4.476a.384.384,0,0,1-.769,0V37.97a1.339,1.339,0,0,0-.775-1.214A2.762,2.762,0,0,1,29.742,31.493Zm0,0" transform="translate(1.747 1.982)"/>
        <path id="Trazado_140072" data-name="Trazado 140072" d="M52.718,18a9.654,9.654,0,1,0-19.307,0v6.877h-13.8a1.942,1.942,0,0,0-1.94,1.939V50.451a1.942,1.942,0,0,0,1.94,1.939H40.822a1.941,1.941,0,0,0,1.939-1.939V26.814a1.942,1.942,0,0,0-1.939-1.939H39.3V18.106a3.847,3.847,0,0,1,3.652-3.87A3.773,3.773,0,0,1,46.828,18v6.6a2.945,2.945,0,0,0,5.89,0ZM40.088,27.549V49.716H20.349V27.549ZM50.044,24.6a.271.271,0,1,1-.542,0V18a6.445,6.445,0,0,0-6.629-6.435,6.54,6.54,0,0,0-6.246,6.543v6.768h-.542V18a6.98,6.98,0,1,1,13.959,0v6.6Zm0,0" transform="translate(1.27 0.511)"/>
        <path id="Trazado_140073" data-name="Trazado 140073" d="M60.7,38.533a6.024,6.024,0,0,0-1.592,4.52c.066.915.681,9.444.779,10.818l0,.019a5.2,5.2,0,0,0,10.368.018l.82-10.832A6.012,6.012,0,0,0,60.7,38.533Zm7.711,4.34c0,.019-.814,10.846-.84,11a2.522,2.522,0,0,1-4.995,0c-.021-.132.037.617-.8-11.009a3.327,3.327,0,1,1,6.635.011Zm0,0" transform="translate(4.246 2.543)"/>
        <path id="Trazado_140074" data-name="Trazado 140074" d="M64.984,58.4a4.389,4.389,0,1,0,4.387,4.39A4.395,4.395,0,0,0,64.984,58.4Zm0,6.1A1.715,1.715,0,1,1,66.7,62.785,1.717,1.717,0,0,1,64.984,64.5Zm0,0" transform="translate(4.354 4.107)"/>
      </g>
    </g>
  </g>
</svg>
